<svg xmlns="http://www.w3.org/2000/svg" xmlns:xlink="http://www.w3.org/1999/xlink" viewBox="0 0 864 864"><defs><style>.cls-1,.cls-14{fill:tomato;}.cls-1,.cls-15,.cls-3,.cls-7{opacity:0.1;}.cls-1,.cls-3,.cls-7{isolation:isolate;}.cls-2,.cls-3,.cls-4{fill:#fff;}.cls-2,.cls-5,.cls-6{opacity:0.4;}.cls-11,.cls-6{fill:#3f3d56;}.cls-8{fill:#ffb8b8;}.cls-9{fill:#9d9da0;}.cls-10{fill:#e0e0e0;}.cls-12{fill:url(#linear-gradient);}.cls-13{fill:#fbbebe;}.cls-16{fill:#65617d;}.cls-17{fill:#ededf4;}.cls-18{fill:#d7d9e1;}.cls-19{fill:url(#linear-gradient-2);}.cls-20{opacity:0.05;}.cls-21{fill:#ffcdd3;}.cls-22{fill:#dce6f2;}.cls-23{fill:#2d293d;}.cls-24{fill:url(#linear-gradient-3);}.cls-25{fill:#a1616a;}</style><linearGradient id="linear-gradient" x1="763.2" y1="-270.87" x2="763.2" y2="-5.72" gradientTransform="matrix(1, 0, 0, -1, -16.24, 554.34)" gradientUnits="userSpaceOnUse"><stop offset="0" stop-color="gray" stop-opacity="0.25"/><stop offset="0.54" stop-color="gray" stop-opacity="0.12"/><stop offset="1" stop-color="gray" stop-opacity="0.1"/></linearGradient><linearGradient id="linear-gradient-2" x1="-10195.49" y1="-278.05" x2="-10195.49" y2="10.2" gradientTransform="translate(-9846.77 554.34) rotate(180)" xlink:href="#linear-gradient"/><linearGradient id="linear-gradient-3" x1="-10045.3" y1="-1387.32" x2="-10045.3" y2="-1115.38" gradientTransform="matrix(-0.98, 0.22, -0.22, -0.98, -10001.31, 1680.84)" xlink:href="#linear-gradient"/></defs><g id="Layer_3" data-name="Layer 3"><path class="cls-1" d="M864,346.83V864H265.08c-23.09-28.75-20-57.26-73.11-97.12C140,727.88,36.47,729.53,6.89,640.77-19.7,561-15.55,467.63-7.77,380.47c5.47-61.87,13.36-128.2,43.53-177.8,31.86-52.48,83.7-74.87,129.33-68.61s85.8,37.43,120.71,75.11c34.15,36.75,66,81.25,104.8,106.64l.18.11c.55.36,1.1.72,1.65,1.06a126.37,126.37,0,0,0,32.27,15c29.07,8.53,59.89,4.35,90.63-.55l1.43-.23c8.7-1.39,17.38-2.83,26-4q7.28-1,14.55-1.76h0c61.4-6.53,122.28-1.79,182.79,3.68C781.72,332.91,823.44,337.18,864,346.83Z"/><rect class="cls-1" x="39.08" y="279.24" width="231.13" height="6.14"/><rect class="cls-1" x="39.08" y="309.33" width="231.13" height="6.14"/><rect class="cls-1" x="61.96" y="209.54" width="16.85" height="69.82"/><rect class="cls-1" x="83.62" y="209.54" width="16.85" height="69.82"/><rect class="cls-1" x="105.29" y="209.54" width="16.85" height="69.82"/><rect class="cls-1" x="126.96" y="209.54" width="16.85" height="69.82"/><rect class="cls-1" x="170.3" y="209.54" width="16.85" height="69.82"/><rect class="cls-1" x="191.97" y="209.54" width="16.85" height="69.82"/><rect class="cls-1" x="61.96" y="222.78" width="16.85" height="3.61"/><rect class="cls-1" x="61.96" y="266.12" width="16.85" height="3.61"/><rect class="cls-1" x="83.62" y="222.78" width="16.85" height="3.61"/><rect class="cls-1" x="83.62" y="266.12" width="16.85" height="3.61"/><rect class="cls-1" x="105.29" y="222.78" width="16.85" height="3.61"/><rect class="cls-1" x="105.29" y="266.12" width="16.85" height="3.61"/><rect class="cls-1" x="126.96" y="222.78" width="16.85" height="3.61"/><rect class="cls-1" x="126.96" y="266.12" width="16.85" height="3.61"/><rect class="cls-1" x="148.63" y="222.78" width="16.85" height="3.61"/><rect class="cls-1" x="148.63" y="266.12" width="16.85" height="3.61"/><rect class="cls-1" x="170.3" y="222.78" width="16.85" height="3.61"/><rect class="cls-1" x="170.3" y="266.12" width="16.85" height="3.61"/><rect class="cls-1" x="191.97" y="222.78" width="16.85" height="3.61"/><rect class="cls-1" x="191.97" y="266.12" width="16.85" height="3.61"/><rect class="cls-1" x="148.63" y="209.54" width="16.85" height="69.82"/><rect class="cls-1" x="223.15" y="209.55" width="16.85" height="69.82" transform="translate(-81.27 119.9) rotate(-24.84)"/><rect class="cls-1" x="214.84" y="224.59" width="16.85" height="3.61" transform="translate(-74.45 114.74) rotate(-24.84)"/><rect class="cls-1" x="233.02" y="263.97" width="16.85" height="3.61" transform="translate(-89.31 126.02) rotate(-24.84)"/></g><g id="Layer_4" data-name="Layer 4"><circle class="cls-2" cx="453.2" cy="621.76" r="23.15" transform="translate(-199.13 1029.74) rotate(-85.93)"/><path class="cls-3" d="M390.6,311.19q0,3,.28,6a1.15,1.15,0,0,0-.26,0c0-.43,0-.86,0-1.29Z"/><path class="cls-3" d="M518.59,311.19v4.74c0,.47,0,.93,0,1.39l-.27,0Q518.59,314.27,518.59,311.19Z"/><path class="cls-3" d="M518.83,259.05v3.17l-.24.09v-3.17Z"/><path class="cls-4" d="M707.31,435.87c-.17-.63-.36-1.26-.55-1.88s-.38-1.25-.59-1.87-.42-1.25-.64-1.86-.35-1-.53-1.45-.3-.79-.46-1.19-.4-1-.6-1.49l-.21-.48c-.18-.42-.36-.85-.55-1.27q-.73-1.65-1.53-3.27-.37-.76-.78-1.53c-.66-1.27-1.35-2.54-2.07-3.8-.2-.35-.4-.7-.61-1q-1.86-3.15-4-6.23c-.31-.44-.62-.89-.94-1.33a138.19,138.19,0,0,0-18.53-20.89c-1.19-1.11-2.4-2.2-3.63-3.29q-4.32-3.79-9-7.42l-1.28-1q-3.39-2.58-6.94-5.08l-1.41-1q-4.26-3-8.71-5.76L641,361l-1.67-1-1.52-.91q-7.6-4.53-15.65-8.64c-1.06-.55-2.13-1.08-3.2-1.62s-2.18-1.08-3.28-1.6-2.17-1-3.27-1.56l-2.46-1.14c-.63-.3-1.27-.59-1.91-.87l-2.17-1-.24-.11q-3.24-1.43-6.51-2.79l-3.36-1.38-3.24-1.3-.36-.14-3-1.17c-.16-.06-.33-.13-.5-.18-1-.39-2-.77-3-1.14s-2.27-.84-3.4-1.24L578.75,332l-3.42-1.16-3.41-1.12q-4.8-1.55-9.58-2.93-2.51-.75-5-1.42h0l-2.45-.66c-1.13-.3-2.26-.6-3.38-.88q-3.46-.9-6.9-1.69-3.27-.75-6.52-1.43c-1-.21-2-.42-3-.61q-3.47-.71-6.87-1.29l-2.62-.44-.92-.15-2.65-.42-.65-.09c-.85-.13-1.7-.26-2.54-.37l-.27,0-.27,0c0-.39.07-.78.1-1.17s.06-.84.08-1.26c.08-1.21.11-2.44.11-3.67V259.14l.24-.09c1.09-.4,2.18-.82,3.26-1.24s2.16-.86,3.23-1.31,2.14-.9,3.2-1.36h0l2.86-1.28.53-.25,2.69-1.26.22-.11c1-.51,2.08-1,3.1-1.54s2-1,3-1.56l.17-.1,2.91-1.58q1.51-.84,3-1.71c1-.58,2-1.16,3-1.76a1.18,1.18,0,0,0,.19-.11c.92-.56,1.83-1.13,2.74-1.7l2.87-1.85s0,0,0,0c.88-.58,1.76-1.16,2.63-1.76s2-1.4,3-2.12c.8-.57,1.59-1.14,2.37-1.72l1-.72c.73-.55,1.46-1.1,2.18-1.66.91-.7,1.81-1.4,2.7-2.12,1.83-1.47,3.64-3,5.41-4.51.82-.7,1.62-1.42,2.42-2.13l0,0c1.69-1.52,3.35-3.06,5-4.64q6.39-6.18,12.18-13c.61-.7,1.2-1.41,1.79-2.13q3.57-4.31,6.88-8.84c.5-.69,1-1.38,1.49-2.08.78-1.1,1.55-2.22,2.31-3.34.53-.78,1-1.56,1.56-2.35s1-1.57,1.51-2.36,1.14-1.82,1.7-2.74c.34-.55.68-1.11,1-1.67q1.59-2.67,3.08-5.4c.48-.85.94-1.71,1.39-2.57.36-.69.73-1.4,1.09-2.11s.63-1.23.93-1.84c.43-.86.85-1.73,1.27-2.61s.91-1.92,1.35-2.89.78-1.71,1.15-2.58q.21-.47.42-1l.9-2.12.42-1c.45-1.09.89-2.2,1.32-3.31q.56-1.44,1.08-2.88l0-.08c.31-.86.62-1.71.92-2.58.2-.55.38-1.1.57-1.66.24-.71.48-1.42.71-2.14s.41-1.27.6-1.9c0-.14.09-.28.14-.42.18-.58.35-1.16.52-1.73q.43-1.44.84-2.88c.32-1.12.62-2.24.91-3.37s.58-2.26.85-3.39c.18-.74.35-1.49.52-2.24.12-.52.24-1,.35-1.56.16-.75.32-1.49.47-2.24.13-.6.25-1.2.36-1.81.41-2.07.77-4.15,1.1-6.25.18-1.08.34-2.16.49-3.25l0-.25c.16-1.1.3-2.19.43-3.3.18-1.46.33-2.92.47-4.39.1-1,.19-2,.27-3.07.1-1.21.18-2.42.25-3.63.07-1,.12-2.09.16-3.14,0-.26,0-.52,0-.79,0-1,.07-2.12.08-3.18,0-.2,0-.4,0-.6,0-1.1,0-2.2,0-3.31A182.54,182.54,0,0,0,616.64,0H293.5a182.54,182.54,0,0,0-21.9,87c0,1.11,0,2.22,0,3.33a5,5,0,0,0,0,.55c0,1.07,0,2.14.08,3.21s.09,2,.15,3c0,.44,0,.88.07,1.32.05.91.12,1.82.19,2.73q.06.93.15,1.86,0,.48.09,1c.05.61.11,1.21.17,1.82.11,1.14.24,2.28.38,3.41s.26,2.12.41,3.18c0,.1,0,.2,0,.31.14,1,.28,2,.44,2.93.1.64.2,1.28.31,1.92.16,1,.33,2,.52,3,.12.67.25,1.35.38,2q.75,3.87,1.67,7.67c.22.91.44,1.81.68,2.71s.43,1.65.66,2.47c.15.58.31,1.16.47,1.74a.84.84,0,0,1,.05.17c.27.93.54,1.86.82,2.78.33,1.12.68,2.23,1,3.34.3.94.61,1.88.93,2.8.17.52.35,1,.53,1.54.56,1.6,1.14,3.2,1.75,4.77.19.51.39,1,.59,1.53q1,2.47,2,4.89c.2.48.4,1,.61,1.41.32.75.65,1.48,1,2.21s.53,1.17.8,1.75c.79,1.7,1.6,3.39,2.45,5.05.44.89.89,1.77,1.36,2.65s.87,1.68,1.33,2.5c.35.65.71,1.3,1.07,1.94.72,1.3,1.45,2.58,2.21,3.84l.87,1.47q1.31,2.18,2.69,4.31l1.06,1.64c.42.65.85,1.29,1.29,1.93l.81,1.19a178.49,178.49,0,0,0,11.16,14.62c.47.56.95,1.12,1.43,1.67,1,1.12,1.93,2.22,2.93,3.3l1.49,1.62q1.49,1.62,3,3.18l1.55,1.57q3.14,3.15,6.44,6.15l1.42,1.27.33.29L335,225.7l1.68,1.43c.56.48,1.12,1,1.69,1.41,1,.82,2,1.64,3,2.44q4.53,3.59,9.29,6.88c.43.3.86.6,1.3.89l.95.65,1.41.93c2.54,1.68,5.14,3.29,7.77,4.85l1.44.83.21.12q2.37,1.37,4.8,2.67c1,.53,2,1,3,1.57l.06,0c1,.49,1.93,1,2.9,1.44l.32.16c.83.41,1.67.81,2.51,1.2,2.49,1.17,5,2.28,7.55,3.33l2.48,1c1.07.42,2.15.84,3.24,1.25v52.4c0,1,0,2,.07,3,0,.4,0,.81.07,1.21,0,.16,0,.32,0,.49,0,.42.06.84.1,1.27l-.26,0-.29,0-2.9.41c-2.14.32-4.29.66-6.47,1-1.08.19-2.17.38-3.27.59l-2.65.5c-1,.19-2.06.4-3.1.62-.82.16-1.65.33-2.48.52q-4.18.87-8.43,1.91l-2.12.52-2.23.56-1.39.36-2.91.78c-.86.22-1.72.46-2.58.71-1.93.53-3.85,1.08-5.78,1.66-1.09.32-2.17.65-3.26,1l-.23.07c-1,.3-1.93.6-2.9.92s-2.08.66-3.12,1l-1.9.64c-1.9.63-3.8,1.29-5.7,2-1.14.4-2.28.82-3.42,1.24s-2.23.82-3.35,1.25c-.84.31-1.69.64-2.53,1q-1.53.58-3.06,1.2c-2.73,1.09-5.46,2.21-8.16,3.37l-1.95.85q-1.44.62-2.85,1.26l-.27.12-3.45,1.57c-2.65,1.23-5.29,2.5-7.9,3.8-1.06.52-2.11,1.05-3.16,1.59A270.58,270.58,0,0,0,257,367.85l-1.76,1.22-1.55,1.09q-4.32,3.09-8.41,6.31l-1.32,1q-4.59,3.69-8.83,7.55l-1.2,1.1-1.22,1.15c-.72.69-1.43,1.37-2.14,2.07l-1.28,1.28-1.12,1.14c-.42.42-.83.85-1.23,1.27-.69.73-1.37,1.46-2,2.19-.36.39-.72.78-1.06,1.17l-1,1.17c-1,1.18-2,2.37-3,3.56l-1,1.2c-.63.8-1.25,1.61-1.86,2.42-.32.41-.62.81-.91,1.22l-.88,1.22c-.59.82-1.15,1.65-1.71,2.47-.29.42-.56.83-.83,1.25-.54.83-1.07,1.66-1.58,2.5-.77,1.26-1.52,2.53-2.22,3.8-.48.86-.93,1.71-1.38,2.57-.22.43-.44.86-.65,1.29q-1.83,3.67-3.3,7.44c-.06.16-.12.32-.17.48-.2.51-.39,1-.58,1.55,0,0,0,0,0,.06-.22.63-.44,1.27-.65,1.91s-.42,1.3-.61,1.95-.38,1.31-.56,2C186.2,491,170.43,550.9,162.58,586.07c67.26,47.26,208.38,75,296.83,75,84,0,221.38-25.05,286.65-68.08C739,554.36,722.73,491.83,707.31,435.87Zm-254.11,209a23.15,23.15,0,1,1,23.15-23.15A23.15,23.15,0,0,1,453.2,644.91Z"/><circle class="cls-4" cx="453.2" cy="621.76" r="23.15" transform="translate(-59.06 47.68) rotate(-5.65)"/><path class="cls-4" d="M795.34,467.23V776.29a46.12,46.12,0,0,1-46.12,46.12h-592a46.11,46.11,0,0,1-46.12-46.12V467.23a46.12,46.12,0,0,1,46.12-46.12h49.67A83,83,0,0,0,201,436.46C186.2,491,170.43,550.9,162.58,586.07c67.26,47.26,208.38,75,296.83,75,84,0,221.38-25.05,286.65-68.08-7.07-38.64-23.33-101.17-38.75-157.13a83.7,83.7,0,0,0-5.66-14.76h47.57A46.12,46.12,0,0,1,795.34,467.23Z"/><circle class="cls-4" cx="453.2" cy="621.76" r="23.15" transform="translate(-199.13 1029.74) rotate(-85.93)"/></g><g id="Layer_2" data-name="Layer 2"><g class="cls-5"><path class="cls-6" d="M459.4,661.08c84,0,221.38-25.05,286.66-68.08-7.07-38.64-23.34-101.17-38.75-157.13C687.67,364.61,563.76,315.2,489.83,315.2H418.6c-74.15,0-198.25,49.69-217.63,121.26C186.19,491,170.42,550.9,162.58,586.07,229.83,633.33,371,661.08,459.4,661.08Z"/><path class="cls-7" d="M390.59,213.54h128v102.4a64,64,0,0,1-64,64h0a64,64,0,0,1-64-64V213.54Z"/><path class="cls-8" d="M409,208.8h91.28a18.36,18.36,0,0,1,18.36,18.36v84a64,64,0,0,1-64,64h0a64,64,0,0,1-64-64v-84A18.36,18.36,0,0,1,409,208.8Z"/><path class="cls-7" d="M390.83,261.87a184.21,184.21,0,0,0,128,.35V246.5h-128Z"/><path class="cls-8" d="M638.53,87c0,1.11,0,2.21,0,3.31,0,.2,0,.4,0,.6,0,1.06,0,2.13-.08,3.18,0,.27,0,.53,0,.79,0,1.05-.09,2.1-.16,3.14-.07,1.21-.15,2.42-.25,3.63-.08,1-.17,2-.27,3.07-.14,1.47-.29,2.93-.47,4.39-.13,1.11-.27,2.2-.43,3.3l0,.25c-.15,1.09-.31,2.17-.49,3.25-.33,2.1-.69,4.18-1.1,6.25-.11.61-.23,1.21-.36,1.81-.15.75-.31,1.49-.47,2.24-.11.52-.23,1-.35,1.56-.17.75-.34,1.5-.52,2.24-.27,1.13-.55,2.26-.85,3.39s-.59,2.25-.91,3.37q-.41,1.44-.84,2.88c-.17.57-.34,1.15-.52,1.73-.05.14-.09.28-.14.42-.19.63-.39,1.27-.6,1.9s-.47,1.43-.71,2.14c-.19.56-.37,1.11-.57,1.66-.3.87-.61,1.72-.92,2.58l0,.08q-.52,1.44-1.08,2.88c-.43,1.11-.87,2.22-1.32,3.31l-.42,1-.9,2.12q-.21.5-.42,1c-.37.87-.76,1.73-1.15,2.58s-.89,1.93-1.35,2.89-.84,1.75-1.27,2.61c-.3.61-.61,1.23-.93,1.84s-.73,1.42-1.09,2.11c-.45.86-.91,1.72-1.39,2.57q-1.49,2.73-3.08,5.4c-.32.56-.66,1.12-1,1.67-.56.92-1.12,1.84-1.7,2.74s-1,1.58-1.51,2.36-1,1.57-1.56,2.35c-.76,1.12-1.53,2.24-2.31,3.34-.49.7-1,1.39-1.49,2.08q-3.31,4.53-6.88,8.84c-.59.72-1.18,1.43-1.79,2.13q-5.78,6.8-12.18,13c-1.63,1.58-3.29,3.12-5,4.64l0,0c-.8.71-1.6,1.43-2.42,2.13-1.77,1.54-3.58,3-5.41,4.51-.89.72-1.79,1.42-2.7,2.12-.72.56-1.45,1.11-2.18,1.66l-1,.72c-.78.58-1.57,1.15-2.37,1.72-1,.72-2,1.43-3,2.12s-1.75,1.18-2.63,1.76c0,0,0,0,0,0l-2.87,1.85c-.91.57-1.82,1.14-2.74,1.7a1.18,1.18,0,0,1-.19.11c-1,.6-2,1.18-3,1.76s-2,1.15-3,1.71L541.13,249l-.17.1c-1,.52-2,1.05-3,1.56s-2.06,1-3.1,1.54l-.22.11-2.69,1.26-.53.25-2.86,1.28h0c-1.06.46-2.12.92-3.2,1.36s-2.15.88-3.23,1.31-2.17.84-3.26,1.24l-.24.09a184.23,184.23,0,0,1-127.76-.26l-.23-.09c-1.09-.41-2.17-.83-3.24-1.25l-2.48-1c-2.55-1-5.06-2.16-7.55-3.33-.84-.39-1.68-.79-2.51-1.2l-.32-.16c-1-.47-1.94-1-2.9-1.44l-.06,0c-1-.52-2-1-3-1.57-1.62-.87-3.22-1.75-4.8-2.67l-.21-.12-1.44-.83c-2.63-1.56-5.23-3.17-7.77-4.85l-1.41-.93-.95-.65c-.44-.29-.87-.59-1.3-.89q-4.76-3.3-9.29-6.88c-1-.8-2-1.62-3-2.44-.57-.46-1.13-.93-1.69-1.41L335,225.7l-1.47-1.29-.33-.29-1.42-1.27q-3.3-3-6.44-6.15l-1.55-1.57q-1.55-1.56-3-3.18l-1.49-1.62c-1-1.08-2-2.18-2.93-3.3-.48-.55-1-1.11-1.43-1.67a178.49,178.49,0,0,1-11.16-14.62l-.81-1.19c-.44-.64-.87-1.28-1.29-1.93L300.59,186q-1.38-2.13-2.69-4.31L297,180.2c-.76-1.26-1.49-2.54-2.21-3.84-.36-.64-.72-1.29-1.07-1.94-.46-.82-.9-1.66-1.33-2.5s-.92-1.76-1.36-2.65c-.85-1.66-1.66-3.35-2.45-5.05-.27-.58-.54-1.16-.8-1.75s-.66-1.46-1-2.21c-.21-.46-.41-.93-.61-1.41q-1-2.41-2-4.89c-.2-.51-.4-1-.59-1.53-.61-1.57-1.19-3.17-1.75-4.77-.18-.51-.36-1-.53-1.54-.32-.92-.63-1.86-.93-2.8-.36-1.11-.71-2.22-1-3.34-.28-.92-.55-1.85-.82-2.78a.84.84,0,0,0-.05-.17c-.16-.58-.32-1.16-.47-1.74-.23-.82-.45-1.64-.66-2.47s-.46-1.8-.68-2.71q-.92-3.8-1.67-7.67c-.13-.66-.26-1.34-.38-2-.19-1-.36-2-.52-3-.11-.64-.21-1.28-.31-1.92-.16-1-.3-2-.44-2.93,0-.11,0-.21,0-.31-.15-1.06-.29-2.12-.41-3.18s-.27-2.27-.38-3.41c-.06-.61-.12-1.21-.17-1.82q-.06-.48-.09-1-.09-.93-.15-1.86c-.07-.91-.14-1.82-.19-2.73,0-.44-.05-.88-.07-1.32-.06-1-.11-2-.15-3s-.07-2.14-.08-3.21a5,5,0,0,1,0-.55c0-1.11,0-2.22,0-3.33A182.54,182.54,0,0,1,293.5,0H616.64A182.54,182.54,0,0,1,638.53,87Z"/></g><rect class="cls-9" x="111.06" y="421.11" width="684.27" height="401.3" rx="46.12"/><circle class="cls-4" cx="453.2" cy="621.77" r="23.15"/></g><g id="e7dedc5b-fca6-4313-b5a0-e6297481e8ae"><rect class="cls-10" y="822.73" width="864" height="29.26"/><rect class="cls-10" x="36.64" y="851.99" width="790.8" height="12.01"/><rect class="cls-7" x="36.64" y="851.99" width="790.8" height="4"/><path class="cls-11" d="M658.38,664.74a2.58,2.58,0,0,0-1.34-2,2.37,2.37,0,0,0-3.29,1.34v.12L641.56,690l-2.8,101h4.39l1.58-100.76,13.4-23.76A2.9,2.9,0,0,0,658.38,664.74Z"/><path class="cls-12" d="M843.58,822l-.24.25a4.25,4.25,0,0,1-1.46.73h0a15.68,15.68,0,0,1-3.42.61h-2.31a6,6,0,0,0-1.46-.12h0a12.9,12.9,0,0,0-2.07.48,19,19,0,0,1-4.51.61h-6.7c-2.93,0-5.85.61-8.9.61h-1a14.88,14.88,0,0,1-8.17-2.44,3.46,3.46,0,0,1-1.09-1.21A3.54,3.54,0,0,1,802,820a4.26,4.26,0,0,1,1-2.68,3.76,3.76,0,0,1,1.58-.73l3-1,3.29-1,.24-.12.61-.12.37-.12a7.54,7.54,0,0,0,1.34-.61,7.72,7.72,0,0,0,1.34-1.34c0-.13.12-.25.24-.37v-.24c-.12-.73-.12-1.34-.24-2.07a7.47,7.47,0,0,1-4-2.32,13.77,13.77,0,0,1-2.32-3.17,66.78,66.78,0,0,1-3-8.16,82.44,82.44,0,0,0-6.09-11.82c-2.07-3.53-4.26-7.07-6.58-10.36-1.58-2.19-3.29-4.26-4.87-6.45a57.85,57.85,0,0,1-9.38-20.47,23.21,23.21,0,0,0-1.1-4.15c-1-2.31-2.68-4.14-4-6.33a20.8,20.8,0,0,1-2.93-7.44c-.24-1.46-.73-3.16-2.19-3.29h0l-.12.37c-3,6.09-6.34,12.18-11,17.06a19,19,0,0,0-2.07,2.31,27.38,27.38,0,0,0-1.34,2.56,14.66,14.66,0,0,1-2.92,4.27,8,8,0,0,1-1.1,1,6,6,0,0,1-1.83.85h0c-.24.13-.48.13-.73.25v.49a25.49,25.49,0,0,1-1,13.15c0,.13-.12.25-.12.37l-.74,1.83c-.73,1.46-1.46,2.8-2.07,4.38a1.79,1.79,0,0,0-.24.74c-2.19,5.84-1.71,12.42-1.95,18.76a23.38,23.38,0,0,1-.49,4.14c-.36,1.59-1,3.05-1.34,4.63a9.39,9.39,0,0,0,0,3.66h-.12c-.61.24-1.22.36-1.83.61v.12c.25,1.22.37,2.44.61,3.65a6.07,6.07,0,0,0,1.1,2.93,1.25,1.25,0,0,1,.49.61c.48.73,0,1.58.12,2.43.12,1.1,1.22,2.08,1,3.29a2.17,2.17,0,0,1-1.34,1.59,2.27,2.27,0,0,1-.85.24h-.12l-1,.12a46.42,46.42,0,0,1-12.3.13,16,16,0,0,0-2.44-.37,25.92,25.92,0,0,0-3.05.12,157.34,157.34,0,0,1-22.66.49c-2-.12-4.26-.37-5.24-2.07a5.87,5.87,0,0,1-.12-4.75,6.78,6.78,0,0,1,.61-1.71l.12-.12c1-1.22,2.92-1.34,4.51-1.34l5.24.12a7.06,7.06,0,0,0,1.58-.12,15.44,15.44,0,0,0,2.32-1.34c1-.49,2.31-.49,3-1.34l.12-.12a2.58,2.58,0,0,0,.37-.61l.12-.13h0v-.12a8.2,8.2,0,0,1,2.8-1.7c.13-.13.25-.13.37-.25l.12-.12a11.18,11.18,0,0,1-2.68-2.68,3.17,3.17,0,0,1-.61-1.1,1.08,1.08,0,0,1,.12-.85c0-.12,0-.12.13-.24h0a24.52,24.52,0,0,1,1.58-2.2v-.12a3.31,3.31,0,0,0-.12-3.65c.48-7.19,2.43-14.26,2.92-21.57.12-2.92.12-5.73.25-8.65s.48-5.73.73-8.53c.73-6.46,2.43-12.79,2.19-19.25v-2a9.84,9.84,0,0,1,1.22-3.78,26.23,26.23,0,0,1,2.68-3.78c3.41-4.38,7.43-8.77,8.65-14.13a26.34,26.34,0,0,1,3.41-7.8,14.22,14.22,0,0,1,2.93-4.14,13.27,13.27,0,0,0,2-1.71c.85-1.21,1-2.8,1.46-4.14.24-.73.73-1.34,1-2.07v-.24a13.74,13.74,0,0,0,.25-2.32v-.61h0a28.78,28.78,0,0,1,1.82-6.33l.37-.74a22.82,22.82,0,0,1-6.58-5.72A16.19,16.19,0,0,1,734.9,676a28.88,28.88,0,0,1-1.95-7.31c-1.34-5.85-4.15-11.45-4.63-17.42a21.41,21.41,0,0,0-.61-5.49,7.54,7.54,0,0,0-.61-1.34c-.12-.24-.25-.36-.25-.61s-.12-.12-.12-.24l-.24-.49-.49.37a346.75,346.75,0,0,1-35.21,24.12l-1.1.61a3.88,3.88,0,0,0-1.34,1.1l-.12.24h0a6.7,6.7,0,0,0-.49,1.71,4.4,4.4,0,0,1-3,2.44,9.79,9.79,0,0,1-7-.86,2.55,2.55,0,0,1-.73-.48c-.24.12-.61.24-.85.36s-.74.37-1.1.49a25.39,25.39,0,0,1-6.82.61,20.7,20.7,0,0,0-6.71.73,16.57,16.57,0,0,1-4.38,1.34h-.49a8.23,8.23,0,0,1-2.44-.73l-.48-.25-.73-.36a2.5,2.5,0,0,1-.61-.49,2.27,2.27,0,0,1-.61-1.1,1,1,0,0,1,0-.85c0-.12.12-.24.24-.36s.24-.13.37-.13a8.58,8.58,0,0,1,1.82.13h1.34a2.3,2.3,0,0,0,1.71-1c.12-.12.12-.12.12-.24h0a.75.75,0,0,0,.12-.49v-.12l-.73-.37-.36-.24h-.12a1.91,1.91,0,0,1-.61-.49c-.13-.12-.25-.24-.25-.36s-.24-.37-.36-.61h0a2.54,2.54,0,0,0-1.34,0c-.61.12-1.22.48-1.83.61a1,1,0,0,1-.85,0c-.86-.37-1.1-1.34-1.34-2.2a.68.68,0,0,0-.13-.48h0v-1a3.14,3.14,0,0,1,1.47-1.83l1.82-1.46.13-.12a.9.9,0,0,0-.13-.49,1.34,1.34,0,0,1,0-1,3.14,3.14,0,0,1,1.47-1.83l4-3.41a4.36,4.36,0,0,1,2.56-1.34c1.46-.12,2.68,1.09,3.65,2.07a8.3,8.3,0,0,0,4.87,2.31,9.36,9.36,0,0,0,2.56-.36l.49-.12c-.12-.25-.24-.37-.24-.61l-.49-1a10.94,10.94,0,0,0,6.21-2.92c1.83-1.59,3.29-3.41,5.12-4.88s4.14-2.92,6.09-4.5c4.51-3.66,7.56-9.14,12.43-12.43,1.71-1.1,3.66-2.07,4.75-3.78.37-.49.61-1.1,1-1.58,1.22-1.59,3.17-2.44,4.87-3.54a21.19,21.19,0,0,0,4.39-4.38,40.32,40.32,0,0,0,2.8-3.54c.85-1.58,1.59-3.16,2.44-4.75a19.62,19.62,0,0,1,2.68-3.65c.24-.49.49-.86.73-1.34a9,9,0,0,1,.61-1.1c.24-.37.36-.49.49-.73a15.12,15.12,0,0,0-1.22-2l-.12-.12a19.18,19.18,0,0,0-1.59-1.47l-1.7-.36a16.16,16.16,0,0,1-11.82-15.48h0a16.08,16.08,0,0,1,1.7-7.18c.25-.49.49-.86.73-1.34l-.73-.37a3.31,3.31,0,0,1-1-.85,1.93,1.93,0,0,1-.37-1.1,5.12,5.12,0,0,1,.37-2.68c.12-.37.36-.85.49-1.22v-.12a15.22,15.22,0,0,1,12.91-8.16c5.61-.25,11.09,2.43,15.6,6.21a17.34,17.34,0,0,1,3.77,3.53,22.31,22.31,0,0,1,3.66,11.46,19.79,19.79,0,0,1,0,3.77,5.18,5.18,0,0,1-.24,1.34c-.13.25-.13.49-.25.74s-.12.36-.24.61h0c-.12.12-.12.36-.24.48v.12l-.13.13.13.36a.46.46,0,0,0,.12.25h0c1.09.12,2.07.24,3.29.36a7.29,7.29,0,0,1,1.58.24,11.11,11.11,0,0,1,2.8,1.83c2.32,1.59,5.12,2.32,7.31,4,3.29,2.44,5,6.46,6.95,10.12,2.68,4.87,6.94,9,8.77,14.25l2.56,7.07a109.35,109.35,0,0,0,5.61,13.65c3.16,6.09,7.55,11.57,10.11,17.91a2.6,2.6,0,0,0,1.34,1.46,110.64,110.64,0,0,1,9.26,15.47,33.25,33.25,0,0,1,3.17,9,19.93,19.93,0,0,1-.73,8.41c-.49,1.58-1,3.17-1.59,4.75a7.62,7.62,0,0,0-.49,1.71v.24a14.29,14.29,0,0,0,.37,3.17,6.23,6.23,0,0,1-.24,2.56c0,.12-.13.24-.13.36a15,15,0,0,0-.85,2v.24a8.64,8.64,0,0,0,.61,3.54,47.63,47.63,0,0,1,.49,13.16c-.12,2.19,1.58,4,3.17,5.6a57.26,57.26,0,0,1,6.94,10.12,30.65,30.65,0,0,1,2.8,5.72,47,47,0,0,1,1.59,7c1.46,7.19,6,13.64,7.19,20.95a19.38,19.38,0,0,0,4.26,9l1.83,2.19a14.73,14.73,0,0,1,1,2,17,17,0,0,1,.74,5,8,8,0,0,0,.12,2.44c.48,1.7,2.31,2.68,3.16,4.14s.25,3.65.49,5.36a5.54,5.54,0,0,0,2.2,3.66c-.49.36-.86.73-1.34,1.09a5.16,5.16,0,0,1,1.58,2.2c.73,1.7.73,3.65,1.34,5.48a3.72,3.72,0,0,1,.36,2.31c-.12.25-.12.49-.24.74,0,.48.49.85.73,1.34A7.08,7.08,0,0,0,843.58,822Z"/><path class="cls-13" d="M727.34,608a36.66,36.66,0,0,0,9.26-4.63l10.24-6.46a8.65,8.65,0,0,1-6.58-4.63,19.9,19.9,0,0,1-2.44-7.92,41.45,41.45,0,0,0-11.7,7.68c-1.46,1.22-4.38,3-4.87,5s2.31,3.41,3.41,4.75C724.9,602,728.44,607.6,727.34,608Z"/><path class="cls-7" d="M727.34,608a36.66,36.66,0,0,0,9.26-4.63l10.24-6.46a8.65,8.65,0,0,1-6.58-4.63,19.9,19.9,0,0,1-2.44-7.92,41.45,41.45,0,0,0-11.7,7.68c-1.46,1.22-4.38,3-4.87,5s2.31,3.41,3.41,4.75C724.9,602,728.44,607.6,727.34,608Z"/><path class="cls-13" d="M671.41,661.7a10.53,10.53,0,0,1-5.72,1.7,8.3,8.3,0,0,1-4.88-2.31c-1.09-1-2.19-2.2-3.65-2.08a4.42,4.42,0,0,0-2.56,1.34l-4,3.29a2.77,2.77,0,0,0-1.34,3.42c.24.85.49,2,1.34,2.19s1.83-.37,2.68-.61a3.2,3.2,0,0,1,3.17,1,1.56,1.56,0,0,1,.48,1.21c0,1-1.09,1.59-2.07,1.71s-2-.24-2.92-.24a.47.47,0,0,0-.37.12c-.12.12-.12.24-.24.36a2.24,2.24,0,0,0,.61,2,4.56,4.56,0,0,0,1.83,1.1,8.17,8.17,0,0,0,2.43.73c1.71.12,3.29-.85,4.88-1.34a21,21,0,0,1,6.7-.73,24.51,24.51,0,0,0,6.7-.61,7.64,7.64,0,0,0,5.12-4.14,1.13,1.13,0,0,0,.12-.61.91.91,0,0,0-.49-.49c-3-2.31-4.26-5-7.8-6.58Z"/><path class="cls-7" d="M671.41,661.7a10.53,10.53,0,0,1-5.72,1.7,8.3,8.3,0,0,1-4.88-2.31c-1.09-1-2.19-2.2-3.65-2.08a4.42,4.42,0,0,0-2.56,1.34l-4,3.29a2.77,2.77,0,0,0-1.34,3.42c.24.85.49,2,1.34,2.19s1.83-.37,2.68-.61a3.2,3.2,0,0,1,3.17,1,1.56,1.56,0,0,1,.48,1.21c0,1-1.09,1.59-2.07,1.71s-2-.24-2.92-.24a.47.47,0,0,0-.37.12c-.12.12-.12.24-.24.36a2.24,2.24,0,0,0,.61,2,4.56,4.56,0,0,0,1.83,1.1,8.17,8.17,0,0,0,2.43.73c1.71.12,3.29-.85,4.88-1.34a21,21,0,0,1,6.7-.73,24.51,24.51,0,0,0,6.7-.61,7.64,7.64,0,0,0,5.12-4.14,1.13,1.13,0,0,0,.12-.61.91.91,0,0,0-.49-.49c-3-2.31-4.26-5-7.8-6.58Z"/><path class="cls-14" d="M735.75,603.09a7,7,0,0,0-5.85-.73,12.7,12.7,0,0,0-5,3.29,22.22,22.22,0,0,0-3.53,4.63c-1,1.58-1.71,3.41-2.56,5a48.47,48.47,0,0,1-6,8,21.44,21.44,0,0,1-4.38,4.39c-1.59,1.1-3.66,1.95-4.76,3.53-.36.49-.61,1.1-1,1.59-1.1,1.7-3.05,2.56-4.75,3.65-4.88,3.29-7.92,8.65-12.43,12.31-1.95,1.58-4.14,2.8-6.09,4.39s-3.29,3.29-5.12,4.87a11,11,0,0,1-6.22,2.92,33.14,33.14,0,0,0,6.1,9.63c2.68,2.68,6.58,4.39,10.35,3.41a4.39,4.39,0,0,0,3-2.44,11.12,11.12,0,0,1,.61-1.82,3.68,3.68,0,0,1,1.34-1.1,328.23,328.23,0,0,0,41.79-29c3.54-2.92,7.07-5.48,10.6-8.16a18,18,0,0,0,3.54-3.17A12.09,12.09,0,0,0,747,615.15a31,31,0,0,0-3.29-4.51A58.65,58.65,0,0,0,735.75,603.09Z"/><path class="cls-7" d="M735.75,603.09a7,7,0,0,0-5.85-.73,12.7,12.7,0,0,0-5,3.29,22.22,22.22,0,0,0-3.53,4.63c-1,1.58-1.71,3.41-2.56,5a48.47,48.47,0,0,1-6,8,21.44,21.44,0,0,1-4.38,4.39c-1.59,1.1-3.66,1.95-4.76,3.53-.36.49-.61,1.1-1,1.59-1.1,1.7-3.05,2.56-4.75,3.65-4.88,3.29-7.92,8.65-12.43,12.31-1.95,1.58-4.14,2.8-6.09,4.39s-3.29,3.29-5.12,4.87a11,11,0,0,1-6.22,2.92,33.14,33.14,0,0,0,6.1,9.63c2.68,2.68,6.58,4.39,10.35,3.41a4.39,4.39,0,0,0,3-2.44,11.12,11.12,0,0,1,.61-1.82,3.68,3.68,0,0,1,1.34-1.1,328.23,328.23,0,0,0,41.79-29c3.54-2.92,7.07-5.48,10.6-8.16a18,18,0,0,0,3.54-3.17A12.09,12.09,0,0,0,747,615.15a31,31,0,0,0-3.29-4.51A58.65,58.65,0,0,0,735.75,603.09Z"/><path class="cls-11" d="M712.11,806.81a8.28,8.28,0,0,0-2.8,1.71c-.25.24-.37.61-.61.85-.73.85-2.07.85-3.05,1.34a21.15,21.15,0,0,1-2.31,1.34,7.1,7.1,0,0,1-1.59.12l-5.24-.12c-1.7,0-3.65,0-4.63,1.46a4.32,4.32,0,0,0-.61,1.71,5.9,5.9,0,0,0,.13,4.75c1,1.71,3.29,1.95,5.24,2.07a154.3,154.3,0,0,0,22.54-.48,23.79,23.79,0,0,1,3-.13l2.44.37a46.18,46.18,0,0,0,12.31-.12,4.25,4.25,0,0,0,2.07-.49,2,2,0,0,0,1.34-1.46c.12-1.1-.85-2.07-1-3.29-.12-.85.25-1.71-.12-2.32-.12-.24-.36-.36-.49-.61a5.11,5.11,0,0,1-1.09-2.92l-1-5.73a1.49,1.49,0,0,0-.48-1.09,1.81,1.81,0,0,0-.74-.25c-4.14-1-8.4-.12-12.67.49a58.15,58.15,0,0,1-6.46.37c-1,0-1.34-.13-1.94.48A12.1,12.1,0,0,1,712.11,806.81Z"/><path class="cls-11" d="M813.12,813.64a18.93,18.93,0,0,1-2.31,1c-2.2.61-4.27,1.34-6.46,1.95a3.85,3.85,0,0,0-1.59.73,4.54,4.54,0,0,0-.73,4.27,3.5,3.5,0,0,0,1.1,1.21,14.7,14.7,0,0,0,8.77,2.44c3.05,0,6.09-.49,9.26-.61,3.78-.12,7.56.37,11.09-.61a12.9,12.9,0,0,1,2.07-.48,6,6,0,0,1,1.46.12,15.08,15.08,0,0,0,5.73-.49,3.76,3.76,0,0,0,1.58-.73,1.29,1.29,0,0,0,.37-1.58c-.24-.49-.73-.74-.73-1.35a1.79,1.79,0,0,1,.24-.73,3.93,3.93,0,0,0-.36-2.31c-.73-2.07-.61-4.51-1.83-6.46a8.26,8.26,0,0,0-5.85-2.92,15.5,15.5,0,0,0-5.36.12,53.48,53.48,0,0,0-5.85,2,19.72,19.72,0,0,1-7.07.61c-1.58-.12-1,.12-1.58,1.46A4.9,4.9,0,0,1,813.12,813.64Z"/><circle class="cls-13" cx="725.39" cy="584.45" r="15.96"/><path class="cls-14" d="M840.9,807.91c-5,4.26-11.57,6.09-18.15,6.21a13.69,13.69,0,0,1-7.92-1.7c-.13-.86-.25-1.83-.37-2.8a10.71,10.71,0,0,1-6.46-5.49,65.11,65.11,0,0,1-3-8.16,82.18,82.18,0,0,0-6.1-11.7A111.91,111.91,0,0,0,792.28,774c-1.58-2.2-3.29-4.27-4.87-6.46A57.22,57.22,0,0,1,778,747.23a22.5,22.5,0,0,0-1.1-4.14,33,33,0,0,0-4-6.22,20.48,20.48,0,0,1-2.92-7.43c-.25-1.46-.73-3.17-2.2-3.29h0c-3.16,6.09-6.33,12.31-11.08,17.3a18.33,18.33,0,0,0-2.08,2.32,27.28,27.28,0,0,0-1.34,2.56,14.74,14.74,0,0,1-2.92,4.26,6.44,6.44,0,0,1-3.78,2.07,24.62,24.62,0,0,1-1.82,15.6c-.61,1.46-1.47,2.8-2.08,4.26-2.56,6-2,12.8-2.19,19.38a15,15,0,0,1-.49,4c-.73,2.68-2.07,5.48-1.34,8.16-6.94,2.68-14.62,2.44-21.81,1.34a9.13,9.13,0,0,1-4-1.22,11.18,11.18,0,0,1-2.68-2.68,3.21,3.21,0,0,1-.61-1.09c-.24-1.22,1.1-2.2,1.71-3.29a3.53,3.53,0,0,0-.12-3.78c.48-7.19,2.43-14.26,2.8-21.45.24-2.8.12-5.72.24-8.52s.49-5.61.73-8.41c.73-6.46,2.44-12.67,2.2-19.13a10.62,10.62,0,0,1,1.34-5.73,26.23,26.23,0,0,1,2.68-3.78c3.41-4.38,7.43-8.77,8.65-14.13a26.34,26.34,0,0,1,3.41-7.8,14.38,14.38,0,0,1,2.92-4.14,13.27,13.27,0,0,0,1.95-1.71c.86-1.09,1-2.8,1.47-4.14a16.42,16.42,0,0,0,.85-2.07,16.66,16.66,0,0,0,.24-2.44,21.57,21.57,0,0,1,2.32-7.67,23,23,0,0,1-6.58-5.73,16.51,16.51,0,0,1-1.59-2.44,30.29,30.29,0,0,1-1.95-7.19c-1.34-5.84-4.14-11.33-4.63-17.18a19.52,19.52,0,0,0-.61-5.36,10.36,10.36,0,0,0-1-2.07,5.8,5.8,0,0,1-.85-2.19c-.37-1.59.12-3.29,0-5a27.81,27.81,0,0,0-1.1-4.26,17.61,17.61,0,0,1-.12-5.61,39.19,39.19,0,0,0,.36-6.58,25.57,25.57,0,0,1,7-19.74l.12-.12a39.43,39.43,0,0,0,3.17-3.29c1.34-1.58,2.19-3.41,3.53-4.87.61-.73,1.34-1.34,1.83-2a9.32,9.32,0,0,1,1.83-1.95,2.55,2.55,0,0,1,2.44-.61,7.31,7.31,0,0,0,.73,2.32l3.29.36a7.29,7.29,0,0,1,1.58.24,10.77,10.77,0,0,1,2.8,1.71c2.32,1.58,5.12,2.32,7.31,4,3.29,2.44,5,6.46,6.95,10.11,2.68,4.88,6.94,9,8.77,14.14.85,2.31,1.71,4.75,2.56,7.07a109,109,0,0,0,5.6,13.52c3.17,6,7.44,11.45,10,17.79a3,3,0,0,0,1.34,1.46A110,110,0,0,1,805,676.19a29.81,29.81,0,0,1,3.16,8.9c.61,4.39-.6,8.89-2.31,13a11.12,11.12,0,0,0-.61,1.82,13.66,13.66,0,0,0,.37,3.17,6.07,6.07,0,0,1-.37,2.93,12.68,12.68,0,0,0-.85,2,8,8,0,0,0,.48,3.77,46.42,46.42,0,0,1,.49,13c-.12,2.19,1.71,4,3.17,5.48a53.22,53.22,0,0,1,7,10.12,34.44,34.44,0,0,1,2.8,5.6,47,47,0,0,1,1.58,7c1.34,7.19,6,13.52,7.19,20.71a18.9,18.9,0,0,0,4.27,8.9l1.82,2.19a5.7,5.7,0,0,1,.86,2,14,14,0,0,1,.73,5,8,8,0,0,0,.12,2.44c.49,1.71,2.31,2.68,3.17,4.14s.24,3.54.48,5.36C839,805.72,839.68,807.06,840.9,807.91Z"/><path class="cls-13" d="M674.7,656.7a10.46,10.46,0,0,1-5.72,1.71,8.37,8.37,0,0,1-4.88-2.32c-1.09-1-2.19-2.19-3.65-2.07a4.36,4.36,0,0,0-2.56,1.34l-4,3.29a4.24,4.24,0,0,0-1.46,1.83,3.41,3.41,0,0,0,.12,1.58c.12.85.49,2,1.34,2.19s1.83-.36,2.68-.61a3.2,3.2,0,0,1,3.17,1,1.57,1.57,0,0,1,.48,1.22,2,2,0,0,1-2.07,1.7c-1,0-2-.24-2.92-.24a.46.46,0,0,0-.37.12c-.12.12-.12.25-.24.37a2,2,0,0,0,.73,2,4.65,4.65,0,0,0,1.83,1.09,7.86,7.86,0,0,0,2.44.73c1.7.13,3.28-.85,4.87-1.34a21.29,21.29,0,0,1,6.7-.73,24.09,24.09,0,0,0,6.7-.61,7.59,7.59,0,0,0,5.12-4.14,1.1,1.1,0,0,0,.12-.61,1,1,0,0,0-.49-.49c-3-2.31-4.26-5-7.79-6.57Z"/><path class="cls-11" d="M717.72,574.7a18,18,0,0,0-2.69,1.09,4.54,4.54,0,0,1-3.77-.24,3.35,3.35,0,0,1-1-.85,3.89,3.89,0,0,1,0-3.66,15.18,15.18,0,0,1,13.41-9.38c5.6-.24,11.08,2.44,15.59,6.21a20.38,20.38,0,0,1,3.54,3.66,22.3,22.3,0,0,1,3.65,11.33,14.78,14.78,0,0,1-.36,5.12,6.33,6.33,0,0,1-2.93,3.9,5.52,5.52,0,0,1-5-.25,18.56,18.56,0,0,1-4.27-3.16,6.55,6.55,0,0,0-2.19-1.34,2.07,2.07,0,0,0-2.32.61c-.73.85-.61,2.31-1.22,3.28a3.65,3.65,0,0,1-3.29,1.1,3.86,3.86,0,0,1-3-1,4.73,4.73,0,0,1-.37-3.17,9.45,9.45,0,0,0,.49-3.17c-.24-2.19-2.19-3.53-2.8-5.6-.37-1.34.49-1.83.36-3.05a1.63,1.63,0,0,0-1.82-1.46C717.84,574.58,717.72,574.58,717.72,574.7Z"/><path class="cls-7" d="M767.67,726h0c-3.17,6.21-6.33,12.43-11.09,17.42a19.05,19.05,0,0,0-2.07,2.32,27.28,27.28,0,0,0-1.34,2.56,14.74,14.74,0,0,1-2.92,4.26l-4,1.95,12.67-65.92Z"/><path class="cls-7" d="M749.4,626.36a29.12,29.12,0,0,1-3.54,3.17c-3.65,2.8-7.07,5.24-10.6,8.16-2.8,2.32-5.73,4.63-8.65,6.83a5.85,5.85,0,0,1-.85-2.2c-.37-1.58.12-3.29,0-5a27.63,27.63,0,0,0-1.1-4.27,17.55,17.55,0,0,1-.12-5.6,39.31,39.31,0,0,0,.36-6.58,25.57,25.57,0,0,1,7-19.74L732,601a12.56,12.56,0,0,1,1.83-.86,6.66,6.66,0,0,1,5.85.73,37.57,37.57,0,0,1,7.92,7.8,31,31,0,0,1,3.29,4.51A11.86,11.86,0,0,1,749.4,626.36Z"/><path class="cls-14" d="M739,598.21a7.07,7.07,0,0,0-5.85-.73,12.81,12.81,0,0,0-5,3.29,22.49,22.49,0,0,0-3.53,4.63c-1,1.59-1.71,3.41-2.56,5a49.31,49.31,0,0,1-6,8,21.44,21.44,0,0,1-4.38,4.39c-1.71,1.09-3.66,1.95-4.88,3.53-.36.49-.61,1.1-1,1.58-1.1,1.71-3,2.56-4.76,3.66-4.87,3.29-7.92,8.65-12.42,12.31-2,1.58-4.15,2.8-6.1,4.38s-3.29,3.29-5.11,4.88a11,11,0,0,1-6.22,2.92,33.38,33.38,0,0,0,6.09,9.63c2.69,2.68,6.71,4.38,10.36,3.41a4.42,4.42,0,0,0,3-2.44,10.08,10.08,0,0,1,.61-1.83,3.76,3.76,0,0,1,1.34-1.09,328.23,328.23,0,0,0,41.79-29c3.53-2.93,7.07-5.49,10.6-8.17a17.65,17.65,0,0,0,3.53-3.16,12.07,12.07,0,0,0,1.47-13.16,31.24,31.24,0,0,0-3.29-4.51A42.38,42.38,0,0,0,739,598.21Z"/><g class="cls-15"><path d="M726,589.93a3.89,3.89,0,0,1-3-1,4.76,4.76,0,0,1-.36-3.16,9.27,9.27,0,0,0,.49-3.17c-.25-2.2-2.2-3.54-2.81-5.61-.36-1.34.49-1.82.37-3a1.75,1.75,0,0,0-1.95-1.47h0a19,19,0,0,0-2.68,1.1,4.56,4.56,0,0,1-3.78-.24,3.34,3.34,0,0,1-1-.86,3.87,3.87,0,0,1,0-3.65v-.12a7.92,7.92,0,0,0-1.1,2.31,3.89,3.89,0,0,0,0,3.66,3.22,3.22,0,0,0,1,.85,4.52,4.52,0,0,0,3.77.12,10.27,10.27,0,0,1,2.68-1.09,1.68,1.68,0,0,1,2.07,1.34V576c.13,1.22-.73,1.7-.36,3,.61,2.08,2.56,3.42,2.8,5.61a13,13,0,0,1-.49,3.17A3.64,3.64,0,0,0,722,591a3.25,3.25,0,0,0,3,1,3.69,3.69,0,0,0,3.29-1.1,4.22,4.22,0,0,0,.61-1.7A5.24,5.24,0,0,1,726,589.93Z"/><path d="M744.28,589.68a5.54,5.54,0,0,1-5-.24,22.21,22.21,0,0,1-4.38-3.17,6.66,6.66,0,0,0-2.2-1.34,2.09,2.09,0,0,0-2.31.61,5.61,5.61,0,0,0-.73,1.83,2.68,2.68,0,0,1,2-.24,5.88,5.88,0,0,1,2.19,1.34,21.78,21.78,0,0,0,4.26,3.16,5.56,5.56,0,0,0,5,.25,6.41,6.41,0,0,0,2.8-3.66A3.07,3.07,0,0,1,744.28,589.68Z"/></g><circle class="cls-11" cx="607.69" cy="809.25" r="16.45"/><circle class="cls-7" cx="607.69" cy="809.25" r="16.45"/><circle class="cls-16" cx="607.69" cy="809.25" r="10.48"/><circle class="cls-7" cx="607.69" cy="809.25" r="10.48"/><path class="cls-11" d="M595,783.42l10.84,24.37a2.1,2.1,0,0,0,2.8,1.09,2.77,2.77,0,0,0,1.1-1l12.79-26.2Z"/><path class="cls-7" d="M595,783.42l10.84,24.37a2.1,2.1,0,0,0,2.8,1.09,2.77,2.77,0,0,0,1.1-1l12.79-26.2Z"/><circle class="cls-11" cx="504.97" cy="809.25" r="16.45"/><circle class="cls-7" cx="504.97" cy="809.25" r="16.45"/><circle class="cls-16" cx="504.97" cy="809.25" r="10.48"/><circle class="cls-7" cx="504.97" cy="809.25" r="10.48"/><path class="cls-11" d="M492.42,783.42l10.85,24.37a2.09,2.09,0,0,0,2.8,1.09,2.84,2.84,0,0,0,1.1-1L520,781.71Z"/><path class="cls-7" d="M492.42,783.42l10.85,24.37a2.09,2.09,0,0,0,2.8,1.09,2.84,2.84,0,0,0,1.1-1L520,781.71Z"/><path class="cls-11" d="M661.18,665.84a2.54,2.54,0,0,0-1.34-2,2.38,2.38,0,0,0-3.29,1.34v.12l-9.5,23.52-2.81,105.39h4.39l1.58-105.15,10.73-21.57A2.94,2.94,0,0,0,661.18,665.84Z"/><polygon class="cls-14" points="466.84 785.86 481.7 776.6 641.68 775.25 645.83 785.86 466.84 785.86"/><polygon class="cls-11" points="466.84 795.85 466.84 785.86 648.75 784.15 648.63 790.85 470.13 790.85 470.13 795.85 466.84 795.85"/><circle class="cls-11" cx="489.86" cy="814.98" r="16.45"/><circle class="cls-16" cx="489.86" cy="814.98" r="10.48"/><path class="cls-11" d="M477.31,789.27l10.85,24.37a2.09,2.09,0,0,0,2.8,1.09,2.92,2.92,0,0,0,1.1-1l12.79-26.2Z"/><circle class="cls-11" cx="617.8" cy="814.98" r="16.45"/><circle class="cls-16" cx="617.8" cy="814.98" r="10.48"/><path class="cls-11" d="M605.25,789.27l10.85,24.37a2.09,2.09,0,0,0,2.8,1.09,2.92,2.92,0,0,0,1.1-1l12.79-26.2Z"/><rect class="cls-17" x="492.67" y="672.05" width="108.69" height="108.69"/><path class="cls-14" d="M514.84,719.45h18.4v27.66h-18.4Zm22.91-13.77h18.4v41.43h-18.4Zm23,23h18.4v18.4h-18.4Z"/><rect class="cls-18" x="511.19" y="563.37" width="108.69" height="108.69"/><path class="cls-14" d="M547.13,640.74h36.8v6.94h-36.8Zm18.4-18.4a4.64,4.64,0,0,0,0-9.26,5.07,5.07,0,0,0-1.34.12l-9.5-6.94-.61.48,7.06,9.63a5.25,5.25,0,0,0-.24,1.34,4.7,4.7,0,0,0,4.63,4.63Z"/><path class="cls-14" d="M565.53,587.86A29.86,29.86,0,0,0,542,636.11h8.41l.61-.61,3.17-3.17L550.91,629l-3.17,3.17A24.12,24.12,0,0,1,542.62,620h4.51v-4.5h-4.51a22.35,22.35,0,0,1,5.12-12.19l3.17,3.17,3.29-3.29L551,600a24.12,24.12,0,0,1,12.19-5.12v4.51h4.63v-4.51A22.35,22.35,0,0,1,580,600l-3.17,3.17,3.29,3.29,3.17-3.17a24.12,24.12,0,0,1,5.12,12.19h-4.51v4.63h4.51a22.35,22.35,0,0,1-5.12,12.18l-3.17-3.17-3.29,3.29,3.17,3.17.61.61h8.53a30,30,0,0,0-23.64-48.37Z"/><rect class="cls-7" x="307.52" y="497.22" width="107.1" height="107.1"/><rect class="cls-17" x="298.38" y="489.42" width="107.1" height="107.1"/><path class="cls-14" d="M364.54,523.9l7.32,7.31-15.48,15.35-12.67-12.67-23.52,23.64L324.7,562l19-19,12.67,12.67,20-20,7.31,7.31V524H364.54Z"/><path class="cls-19" d="M280.71,826.69c.74-3.29,1.35-6.22,1.35-6.22a10.84,10.84,0,0,1,1.46-6.21v-.86h0v-6.58a18.43,18.43,0,0,0-1.71-3.41c-1.22-2.07,0-9.74,0-9.74s4.39-10.73,3.29-17.55,9-30.34,9-30.34a30.53,30.53,0,0,0-1-6.7,6,6,0,0,1-.12-1.46v-.13h0c.12-4.5,3.66-12.91,3.66-12.91l-.49-16.08s-2.32-9.51,1.46-22.18a87.36,87.36,0,0,0,2.56-10.72c0-.37.12-.61.12-.86-7.55-1.21-13.4-2.07-13.4-2.07s4.39-18.52,7.43-21.69,5.36-13.4,5.36-13.4,1.59-13-1-16.81-2.8-10.48-2.8-10.48-5.73-4.14-6.46-6a31.5,31.5,0,0,1-1.95-8.17c0-2.19.73-4.14.49-5.36s1.7-5.48.73-7.55a5.56,5.56,0,0,1-.37-2.07v.12a25.46,25.46,0,0,1,.49-5.36,16.72,16.72,0,0,1,5.6-3l.13-.49.36-1.34a2.72,2.72,0,0,1,.61-.36v-2.32l-.85-4.26c-1.71-7.31,8-8.41,8-8.41a5.5,5.5,0,0,1,2.8-2.44c1.95-.73.37,11-.61,11.7a40.38,40.38,0,0,0-3.9,6.09h0l-.12.25c.12.12.37.24.49.49l-.37,2.55v.37a14.87,14.87,0,0,1,1.59,2.56,5.76,5.76,0,0,0-1.47,4.14,12.35,12.35,0,0,1-.6,5.12c.12-.12,1.34-1.46,2.55-1.1s4.76,1.34,4.76,1.34,2.56.49,2.43,1.1,1.83,3.17,1.83,3.17l7.07-6.7c.12-.25.12-.37.24-.61a23.48,23.48,0,0,0,.61-2.93,7.53,7.53,0,0,1-2.19-.73,4.32,4.32,0,0,1-1.95-1.34,7,7,0,0,1-1.1-3.05,59.23,59.23,0,0,0-2.56-5.84,19.37,19.37,0,0,1-1.46-10.48,6.52,6.52,0,0,1,1.1-3.05c1.09-1.58,3.29-2.19,4.75-3.53s2.56-3.17,4.26-4.15a9,9,0,0,1,5.37-.48,29,29,0,0,1,10,3.65,5.6,5.6,0,0,0,3.29,1.1,5,5,0,0,0,2.43-1.71v-.12l.13-.12a12.61,12.61,0,0,1,1.09,5.24v1.34h0v.36a2.63,2.63,0,0,0,.61,1c.24.24.37.49.61.73a.42.42,0,0,0-.12-.24,3.63,3.63,0,0,1,.73,2.19,2.4,2.4,0,0,1-.49,1.58c-.36.37-.73.61-1.09,1a15.09,15.09,0,0,1,.24,2.31A13.46,13.46,0,0,1,337,578l-.25.61a18.7,18.7,0,0,0-1.34,7.67,1,1,0,0,0,.13.61l.24.25h0s11.57.12,14.38-2.32,6.94,6.09,6.94,6.09,4.14.86,5,0,5.72-.12,5.72-.12a10,10,0,0,1,7.32-2.56,20.86,20.86,0,0,1,5.36-2.92h.12a6.13,6.13,0,0,1,2.56-.37s5.72-4.75,7.43-7.31,9.63-11.94,9.63-12.06v-.49l.12-1.34h.73c0-.12.12-.24.12-.48a21.86,21.86,0,0,1,1.71-3.9s0-1.71-.49-2.2.24-6.82.24-6.82,5.24-12.06,9.75-3.05c0,0,8.77,5.85,1.34,12.68,0,0-2.92,1.46-3.29,2.55-.24.74-1.34,2.81-2,4.15l-.24.61h.12l-.12,1.09v.49c1.34.73,2.31,1.58,2.07,2.19a13.35,13.35,0,0,0-.85,3.17s-10.12,12.67-11.46,18.16c0,0-27.17,16.2-36.19,17.3l1.59,8a62.46,62.46,0,0,1,.36,6.58c-.12,1.71,1.1,9.63,1.1,9.63s1.58,11.57,2.92,13.16,1.1,8.52,1.1,8.52a52.88,52.88,0,0,0,1.83,9.75,26.8,26.8,0,0,1,.36,9.87s4.51,10.36-6.33,3.29c0,0-5.36-.36-11.46-.49v3.17c.13,6,.13,14.14-.12,20.35-.48,11-3.77,32.65-3.77,32.65v10.85a13.44,13.44,0,0,1,.36,3.17,20.28,20.28,0,0,1-2.92,11l-.86,7.31a27.79,27.79,0,0,0-1.95,7.68,1.46,1.46,0,0,0,.13.73,3.44,3.44,0,0,1,.12,1.1c.12,3.29-1.83,11.21-1.83,11.21s-.12,7.92-1.34,8.41,1.34,4.63,2.07,5.72v-.24l.12.24a5.56,5.56,0,0,1,.37,2.07,2.93,2.93,0,0,1-1.34,2.81c-2.32,1.34-3.53,2.55-1.59,3a10.4,10.4,0,0,1,2.08.49c0-.12.12-.12.12-.24a1.16,1.16,0,0,1,.73,1.34,5.22,5.22,0,0,1-.73,2.68,27.79,27.79,0,0,1-3.29,5.84l-1-.12a8.9,8.9,0,0,0,.49,1,4.41,4.41,0,0,0,1.34,1.22,9.67,9.67,0,0,0,1.58.61,4.27,4.27,0,0,1,3.42,1.7c1.22,1.59,1.95,3.66-.37,5.48l-8.53,2.93s-14.62,2-13.89-1.34,1.34-6.22,1.34-6.22a12,12,0,0,1,1.22-5.84c.12-.25.37-.61.49-.86h-.49s-1.1-7.31-2.56-8.65a1,1,0,0,1-.36-.73c-.13-.36.24-.61.73-.73a.42.42,0,0,0,.12.24,6,6,0,0,1,1.46-.12s.49-3.78-1.1-5.24a1.24,1.24,0,0,1-.24-1.09,7.65,7.65,0,0,1,.12-1.59l.12.12a56.72,56.72,0,0,1,3.42-8.89s.12-3.41-.86-4.87.13-18.77.13-18.77-.37-8.41.73-12.31-1.34-8.52-1.34-8.52v-.25h0a10.66,10.66,0,0,1,.12-1.34v.12c.24-2.19.73-6.21,1-8.16.49-2.56-.12-15.35-.12-15.35l-1.95-5.36-3.78,9.38-4,12.43a9.71,9.71,0,0,0-2.07,5.36v1.22a6.9,6.9,0,0,1-1.34,4.38s-1.1,5.85-2.8,7.43A6.62,6.62,0,0,0,309,761s-2.07,8.53-3,10-.86,4.75-.86,5.85h0v.37s-.24,3-.24,5.6v.85a12.28,12.28,0,0,0,.24,2.08v-.37a25.52,25.52,0,0,1,.61,5.36c0,3-.36,6.7-2.31,8.9-3.17,3.65-5.24,3.16-5.24,3.16s1.58,4.63,3.41,5.61c.12,0,.12.12.24.12v-.24a2.85,2.85,0,0,1,.61,1.7,12.42,12.42,0,0,1-2.31,6.83,4.37,4.37,0,0,1-1.59,1l.25.24a3.13,3.13,0,0,1,.61.37,2.88,2.88,0,0,0,1,.24,4.51,4.51,0,0,1,3.41,1.59c1.22,1.58,1.95,3.65-.36,5.48l-8.53,2.93C294.48,828,280,829.85,280.71,826.69Z"/><path class="cls-11" d="M336.76,832.05l8.29-2.93c2.31-1.83,1.58-3.9.36-5.48a4.84,4.84,0,0,0-3.29-1.71,3.56,3.56,0,0,1-1.58-.61,4.25,4.25,0,0,1-1.34-1.21,6.07,6.07,0,0,1-1-3.17s-9-2.56-11.58,0a4.7,4.7,0,0,0-1.1,1.58,12,12,0,0,0-1.09,5.85s-.49,2.92-1.22,6.21S336.76,832.05,336.76,832.05Z"/><path class="cls-11" d="M296.43,828l8.29-2.93c2.31-1.83,1.58-3.9.36-5.48a4.27,4.27,0,0,0-3.29-1.59,2.88,2.88,0,0,1-1-.24c-.24-.12-.37-.24-.61-.36-2.31-1.34-2.31-4.39-2.31-4.39s-9-2.56-11.58,0a4.1,4.1,0,0,0-.85,1.22,12.32,12.32,0,0,0-1.34,6.21s-.49,2.93-1.22,6.22S296.43,828,296.43,828Z"/><path class="cls-16" d="M283.88,803.17a21.73,21.73,0,0,1,1.59,3.41v9.14c2.31,3.78,14.37,2.56,16,.49s3.29-7.56,1.46-8.41-3.41-5.61-3.41-5.61,1.95.49,5.12-3.16,2.19-11.94,1.58-13.89,0-8.53,0-8.53-.12-4.63.85-6.1,2.93-10,2.93-10a7.18,7.18,0,0,1,1.58-4.38c1.59-1.47,2.56-7.44,2.56-7.44a7.08,7.08,0,0,0,1.1-5c-.37-2.93,1.95-6,1.95-6l3.9-12.43,3.65-9.38,2.07,5.36s.61,12.67.12,15.35-1.09,9.75-1.09,9.75,2.31,4.63,1.34,8.53-.73,12.3-.73,12.3-1.1,17.43-.12,18.77.85,4.87.85,4.87S322.39,801,324,802.44s1,5.24,1,5.24-3.16,0-1.82,1.34,2.43,8.65,2.43,8.65l14,1.58a33.55,33.55,0,0,0,3.16-5.85c1.83-4.26-.36-3.77-2.19-4.26s-.73-1.58,1.46-3,1-4.5,1-4.5-3.29-5.61-2.2-6.1,1.35-8.4,1.35-8.4,2.31-9.51,1.7-12,1.83-8.65,1.83-8.65l.85-7.31a20.16,20.16,0,0,0,2.56-13.77V734.2s3.29-21.68,3.66-32.65c.24-7.07.24-16.57.12-22.54,0-3.41-.12-5.61-.12-5.61l-49.84-5.24a50.92,50.92,0,0,1-.85,7.44c-.49,2.8-1.34,6.33-2.56,10.72a47.17,47.17,0,0,0-1.34,22.18l.49,16.08s-4.39,10.72-3.42,14.38a39.78,39.78,0,0,1,1,6.7s-9.75,23.39-8.77,30.22-3.29,17.54-3.29,17.54S282.79,801.1,283.88,803.17Z"/><g class="cls-20"><path d="M341.64,803.17a2.89,2.89,0,0,0,1.22-1.95l.12.24s1.34,3.17-1,4.51l-.73.49c-.36-.12-.85-.12-1.34-.24C338.23,805.73,339.44,804.51,341.64,803.17Z"/><path d="M324.09,802.19c-.36-.36-.36-1.21-.12-2.31a5.25,5.25,0,0,1,.73,3.29A2.59,2.59,0,0,0,324.09,802.19Z"/><path d="M326.16,744.81a16.51,16.51,0,0,1,1,4.26,14.49,14.49,0,0,0-1.1-2.92A9.23,9.23,0,0,1,326.16,744.81Z"/><path d="M295,738.71a5,5,0,0,1-.12-1.34c.12.86.24,1.71.36,2.32A5.5,5.5,0,0,0,295,738.71Z"/><path d="M326.53,785.87a9.49,9.49,0,0,1-.37-2.56,9.18,9.18,0,0,1,.73,3.29A1.93,1.93,0,0,0,326.53,785.87Z"/><path d="M342.12,786.84s-.12,7.92-1.34,8.41h0c-.6-1.34-1-2.56-.48-2.8,1.09-.49,1.34-8.41,1.34-8.41s2.31-9.5,1.7-11.94,1.83-8.65,1.83-8.65l.85-7.31a20.12,20.12,0,0,0,2.56-13.77V731.16s3.29-21.69,3.66-32.66c.24-7.06.24-16.57.12-22.54v-2.8h.37s0,2.19.12,5.61c.12,6,.24,15.59-.12,22.54-.49,11-3.66,32.65-3.66,32.65v11.21a20.17,20.17,0,0,1-2.56,13.77l-.85,7.31s-2.44,6.09-1.83,8.65S342.12,786.84,342.12,786.84Z"/><path d="M283.52,800.12a21.18,21.18,0,0,1,1.58,3.41v1.59c-.24-.61-.61-1.34-1.1-2.32a4.28,4.28,0,0,1-.48-2.68Z"/><path d="M300.33,802a10.94,10.94,0,0,1-1.09-2.8s1.94.49,5.11-3.17c2.32-2.68,2.44-7.8,2.07-11.09.61,2,1.47,10.12-1.58,13.89C302.65,801.1,301.18,801.83,300.33,802Z"/><path d="M306.3,776.36a65,65,0,0,0-.24,6.83,3.62,3.62,0,0,0-.24-1.1c-.61-2,0-8.53,0-8.53s-.13-4.63.85-6.09,2.92-10,2.92-10a7.13,7.13,0,0,1,1.59-4.39c1.58-1.46,2.55-7.43,2.55-7.43a8,8,0,0,0,1.22-5c-.36-2.92,1.95-6,1.95-6l3.9-12.43,3.66-9.38,2.07,5.36V720l-1.59-4.39-3.65,9.38-3.9,12.43s-2.31,3.17-1.95,6a8,8,0,0,1-1.1,5s-1.09,5.85-2.55,7.43a7.13,7.13,0,0,0-1.59,4.39s-1.95,8.53-2.92,10.11S306.3,776.36,306.3,776.36Z"/></g><path class="cls-21" d="M296.68,564l.85,4.26v3.17l4.87.49.49-1h0a46.46,46.46,0,0,1,3.78-6.09c.85-.73,2.43-12.43.61-11.7a5.24,5.24,0,0,0-2.68,2.44C304.47,555.58,295,556.68,296.68,564Z"/><path class="cls-7" d="M297.41,571.42l4.87.49.49-1h0a4.11,4.11,0,0,0-5.36-.85Z"/><path class="cls-22" d="M296.19,573.73l6.34,1.47.12-1,.36-2.56a4.3,4.3,0,0,0-6.09-.85h0l-.37,1.34Z"/><path class="cls-21" d="M399,564.47l6.82,3.66s.24-.49.61-1.34c.61-1.34,1.58-3.41,1.83-4.14.36-1.1,3.17-2.56,3.17-2.56,7.06-6.83-1.35-12.55-1.35-12.55-4.5-9-9.5,3-9.5,3s-.73,6.34-.24,6.83.48,2.19.48,2.19a22.9,22.9,0,0,0-1.58,3.9A8.69,8.69,0,0,1,399,564.47Z"/><path class="cls-7" d="M399,564.47l6.82,3.66s.24-.49.61-1.34c-1-.85-4.39-3.53-5.48-3.41h-1.59Z"/><path class="cls-22" d="M398.42,566.55l7.67,3.77.13-1.58.12-1.1s-4.39-3.77-5.73-3.65a5.33,5.33,0,0,1-1.95,0l-.12,1.34Z"/><path class="cls-21" d="M315.08,592s33.26,3.78,27,1.71c-4.26-1.46-6.09-4.15-6.45-7.19a18.14,18.14,0,0,1,1.22-7.68,33.71,33.71,0,0,1,2.92-6s-25.34-14-20.35-1.34a25.05,25.05,0,0,1,1.46,6,16.83,16.83,0,0,1-.61,6.09A17,17,0,0,1,315.08,592Z"/><path class="cls-7" d="M319.58,571.54a25.56,25.56,0,0,1,1.47,6c2.43,2.07,5,1.83,8.4,1.83,2.56,0,5.49.61,7.56-.61a34.41,34.41,0,0,1,2.92-6C339.93,572.88,314.47,558.87,319.58,571.54Z"/><circle class="cls-21" cx="329.82" cy="566.55" r="13.77"/><path class="cls-7" d="M315.08,592s33.26,3.78,27,1.71c-4.26-1.46-6.09-4.15-6.45-7.19-1.71-1.83-5-3-7.07-3.78a10,10,0,0,0-6-.12,17.45,17.45,0,0,0-2.19,1A17.67,17.67,0,0,1,315.08,592Z"/><path class="cls-7" d="M296.19,573.73l6.34,1.47.12-1a5.38,5.38,0,0,0-6.1-2.07Z"/><path class="cls-7" d="M398.42,566.55l7.67,3.77.13-1.58a54.12,54.12,0,0,0-7.68-3.41Z"/><path class="cls-7" d="M301.92,675.72c12.91,2.07,31.19,4.63,34.11,3.78,2.44-.73,10.12-.61,16.82-.37,0-3.41-.12-5.6-.12-5.6l-49.84-5.24A38.71,38.71,0,0,1,301.92,675.72Z"/><path class="cls-11" d="M289.12,672.67s42.4,7.31,46.91,5.85,27.91.12,27.91.12c10.47,7.07,6.09-3.29,6.09-3.29a26.31,26.31,0,0,0-.37-9.74,52.2,52.2,0,0,1-1.7-9.87s.24-7-1.1-8.53-2.8-13.16-2.8-13.16-1.1-7.8-1-9.63a65.58,65.58,0,0,0-.36-6.58l-1.47-8c8.66-1.22,35-17.3,35-17.3,1.34-5.48,11.09-18.16,11.09-18.16a10.08,10.08,0,0,1,.86-3.16c.73-1.83-9.75-5.49-9.75-5.49s-7.8,9.51-9.38,11.94-7.19,7.31-7.19,7.31a4.52,4.52,0,0,0-2.56.37h-.12a22.27,22.27,0,0,0-5.24,2.92,10.18,10.18,0,0,0-7.07,2.56s-4.75-.73-5.48.12-4.88,0-4.88,0-4-8.52-6.7-6.09-13.89,2.44-13.89,2.44c-1.46-2-5.12-3.41-7.43-4.14a10.05,10.05,0,0,0-6-.13,9,9,0,0,0-2.44,1.1l-6.82,6.7s-1.95-2.56-1.71-3.17-2.31-1.09-2.31-1.09-3.29-1-4.63-1.34-2.44,1-2.56,1.09a14.36,14.36,0,0,0,.61-5.11A5.68,5.68,0,0,1,304,577c-4-10-13.16-1.58-13.16-1.58s-1,5.36-.12,7.55-1,6.58-.73,7.68-.49,3.17-.49,5.36a30.31,30.31,0,0,0,1.83,8.17c.73,1.82,6.21,6,6.21,6s.37,6.58,2.8,10.47,1,16.82,1,16.82-2.32,10.11-5.24,13.4S289.12,672.67,289.12,672.67Z"/><path class="cls-23" d="M333.6,579.1a2.89,2.89,0,0,1-1.1,1.82,2.36,2.36,0,0,1-1.34.25c-4.14.24-8.53.48-12.43-1.22a4,4,0,0,1-1.83-1.34,7.06,7.06,0,0,1-1.09-3.05,61.85,61.85,0,0,0-2.56-5.85,19.27,19.27,0,0,1-1.34-10.47,6.51,6.51,0,0,1,1.09-3c1.1-1.59,3.17-2.19,4.63-3.53s2.44-3.17,4.15-4.15A8.54,8.54,0,0,1,327,548a26.9,26.9,0,0,1,9.62,3.65,5.1,5.1,0,0,0,3.29,1.1,5.23,5.23,0,0,0,2.44-1.83,11.06,11.06,0,0,1,1,6v.85a2.86,2.86,0,0,0,.61,1c1,1.22,1.71,3,.61,4.26-.49.49-1.09.86-1.58,1.34-.73,1-.49,2.32-.49,3.54a2,2,0,0,1-.37,1.21,1.5,1.5,0,0,1-1.7.37,4.73,4.73,0,0,0-1.83-.12,3.06,3.06,0,0,0-1.58,1.22A25.45,25.45,0,0,0,333.6,579.1Z"/><path class="cls-7" d="M336,587.38s-17.18,2.32-18.76-.36"/><path class="cls-24" d="M64,822.21a10.79,10.79,0,0,0,4.75,5.12,64.94,64.94,0,0,1,6,4c2.19,2.07,3.53,4.87,6.09,6.34a9.32,9.32,0,0,0,3,1.21,19.07,19.07,0,0,0,3.77.74,27,27,0,0,0,9.75-1.71,10.45,10.45,0,0,0,2.93-1.22l1.09-1.1a6.58,6.58,0,0,0,1.59-2.43,2,2,0,0,0-.13-1.46,3.8,3.8,0,0,0-1.21-1.22,21.28,21.28,0,0,0-2.81-1.59A12.82,12.82,0,0,1,95.17,827a6.89,6.89,0,0,1-1.71-2.43,23.37,23.37,0,0,1-1.95-4.76,17.86,17.86,0,0,0-1.09-3.29c-.61-1.09-1.59-2.07-2.2-3.16a2.44,2.44,0,0,0,1-.12,8.52,8.52,0,0,0-1.1-4.88c1.34.12,2.07-1.7,1.83-3s-.85-2.81-.24-4a5.56,5.56,0,0,1,1.58-1.82c2.19-2.32,2.19-5.85,3-8.9a26.17,26.17,0,0,1,2.31-5c2.68-4.76,3.9-10.85,8.16-14.26l3.9-3.17a1.2,1.2,0,0,0,.61-.73c.25-.61-.24-1.22-.24-1.83.12-1.09,1.58-1.58,2.07-2.56a3.38,3.38,0,0,0,.37-1.58c.36-1.7,2.07-2.8,3.41-4.14a9.09,9.09,0,0,0,2.43-7.56,6,6,0,0,1-.12-2.07c.12-.49.37-1,.49-1.34a14.14,14.14,0,0,0,.49-4.51,47.77,47.77,0,0,1,.85-7.19l19-4.26.36.37c1.71,1.7,2.56,4.14,4.15,6l2.19,2.43c.37.49.85,1.1.61,1.59s-.61.61-.85.85a1.43,1.43,0,0,0,.36,2.07,1.3,1.3,0,0,0,1,.25,2.94,2.94,0,0,0,.85,4l.73.36a10.61,10.61,0,0,1-1.58,2.44,2.07,2.07,0,0,1,.36,1.22c-.12.24-.12.48-.24.73a3.93,3.93,0,0,0,.12,1.7,25.91,25.91,0,0,1,0,13.65,5,5,0,0,0-.37,1.83,7.22,7.22,0,0,0,.25,1.58c.61,2.32,2,4.75,1,7-.24.48-.48,1.09-.73,1.58-.49,1.71.61,3.29,1.22,4.88a16.75,16.75,0,0,1,.61,6.94c-.12,3.17-.37,6.46-.49,9.63a3.94,3.94,0,0,0,.12,1.7,2.69,2.69,0,0,0,1.95,1.46c-.24.61-.36,1.34-.61,2a1.06,1.06,0,0,0-1.58-.36l-.37.36a2.36,2.36,0,0,0-.24,1,21.64,21.64,0,0,0,1.1,6.82,3.44,3.44,0,0,1,.12,1.1l-.37,1.1a.42.42,0,0,1-.12.24,6.14,6.14,0,0,0,.37,3.29,2.66,2.66,0,0,0,1,1.7,2.33,2.33,0,0,0,1.22.37c6.7.73,13.16-3.53,19.74-2.8,1.34.12,2.68.49,4,.61a20.48,20.48,0,0,0,4.75-.25,62.24,62.24,0,0,0,6.58-1.09,14.34,14.34,0,0,0,4.88-1.59,5.55,5.55,0,0,0,3-3.77,2.8,2.8,0,0,0-.24-2.2c-.12-.24-.37-.36-.61-.61a7.58,7.58,0,0,0-1.71-.85l-2.56-1a14.09,14.09,0,0,0-3.77-1,23.87,23.87,0,0,0-2.93,0c-3.41-.12-6.33-2.07-9.14-4L168.4,801a2.5,2.5,0,0,0-2.56-.49l-.49.25,2.32-1.34c.12-11.46.12-22.91-.13-34.36a31.92,31.92,0,0,0-.85-8.41c-.36-1.58-.85-3.66.49-4.51.36-1.22-.37-2.44-.73-3.65s.12-3,1.34-3c-1.22-2.19-1.22-5-1.34-7.56a55.28,55.28,0,0,0-.37-6.33,17.46,17.46,0,0,0-2.19-7.43l18.76-4.27-.61-2.68,2.81-.61-15.11-66.4a1.74,1.74,0,0,0,1.09-1.59c-.12-.61-.73-1.22-.48-1.83.12-.36.48-.6.73-.85a2,2,0,0,0-.25-2.44.92.92,0,0,1-.24-.6c0-.13.12-.25.12-.49a3.24,3.24,0,0,0-1-3.9.94.94,0,0,0-.49-.24,4.13,4.13,0,0,1-1.22,0c-.49-.13-.49-.37-1-.49h-.12l-5.73-25.1a18.71,18.71,0,0,0,1-3.78,11.3,11.3,0,0,0-.61-6.7,12.62,12.62,0,0,0,3.29-2.44,1.88,1.88,0,0,0,.49-2.31,16.48,16.48,0,0,0-5.6-7.56c-.86-.61-2.68-2.19-3.78-1.82a8.1,8.1,0,0,1,1-1.22,10.8,10.8,0,0,0,1.83-2.32,16,16,0,0,0,9.51-18,4.68,4.68,0,0,0-.13-.61,2.85,2.85,0,0,0,2.2-.73,2.59,2.59,0,0,0,.24-2.8,23.25,23.25,0,0,0-1.34-2.56c-1.1-2-.85-4.39-1.83-6.1a20.35,20.35,0,0,0-3.77-4.14,12.5,12.5,0,0,0-10.12-2.31A21.2,21.2,0,0,0,144,552a13.25,13.25,0,0,1-2.68,1.83c-1.59.73-3.54.73-4.88,1.82-1.7,1.47-1.58,4.15-.85,6.34s1.71,4.51.85,6.7a12.88,12.88,0,0,0-.73,2,5.77,5.77,0,0,0,1,3.66,6.4,6.4,0,0,0,.49-.86v.13l.36,1.09a.76.76,0,0,0-.49.12c-.61.25-1,1.1-1.46,1.59s-2,.73-2.19,1.7c-.12.37,0,.86-.12,1.22-.37.86-1.47.86-2.08,1.34a1.73,1.73,0,0,0-.36,1.83,3.28,3.28,0,0,0,.49,1,2.05,2.05,0,0,0,.12,1.22l-7.8,1.83a14.19,14.19,0,0,0-3.66,1.22,6.07,6.07,0,0,0-2.68,2.56c0,.12-.12.36-.24.36h-.36a6.56,6.56,0,0,0-4,.25,21.18,21.18,0,0,0-10.23,7.55,3.78,3.78,0,0,0-1,2c-.12.85.37,1.71,0,2.44l-.36.12c-1.1.37-2.19.85-3.29,1.34s-2.07,1.58-3.17,2.32c-4.26,3.16-10,4.75-13,9.13-1,1.34-1.7,3.17-3.29,4-.73.37-1.46.74-2.07,1.1-1.22,1-1.34,2.68-1.7,4.27l-27.3,6.21.61,2.68-2.8.61,25.22,111,23.27-5.24a7.31,7.31,0,0,0,.25,1.59,13.13,13.13,0,0,0,1.58,4.63A2.6,2.6,0,0,0,93.58,749a27.76,27.76,0,0,1-.12,3.29c-.36,2-2.07,3.29-3.41,4.63-6.21,6.34-7.55,15.72-10.72,24-1.46,3.77-3.41,7.55-4.39,11.45-1.09,4.51-1.22,9.75-4.75,12.92a3.06,3.06,0,0,0-.85,1,1,1,0,0,0,0,.85,4,4,0,0,0,1.34,2.07l-.12.37h-.37c-.73,0-1.1,1-1.34,1.46A14.05,14.05,0,0,0,67,817.22h-.61a2.21,2.21,0,0,0-1.82,1.58C63.49,820.26,63.49,821.24,64,822.21Zm90.53-230.65h-.25a13.81,13.81,0,0,1,.86-1.95A6.87,6.87,0,0,0,154.51,591.56Zm-74.45,222a2.09,2.09,0,0,1-.85,1.22h-.13c0-.12.13-.24.13-.49l.36-.85Z"/><path class="cls-11" d="M161.45,808.08c-4.14,1.58-8.65,2.92-13,2.56a1.52,1.52,0,0,1-1.58-1,1.56,1.56,0,0,1,.12-.73,39.55,39.55,0,0,0,2.2-8.28c0-.13.12-.25.12-.37a.44.44,0,0,1,.36-.12c2.07,0,4,1,6,1a9,9,0,0,0,3.05-.48c.85-.25,1.83-1.22,2.68-1.35C161.57,802.11,161.09,805,161.45,808.08Z"/><path class="cls-11" d="M77.87,819.41c-3.29-1.34-6.7-2.68-9.14-5.36a2.71,2.71,0,0,1-.37-.61.93.93,0,0,1,.12-.61,22.7,22.7,0,0,1,4.63-7.92,17.32,17.32,0,0,1,4.15,2.31c.85.61,3.17,1.34,3.41,2.56.12.61-.49,1.59-.61,2.2a18,18,0,0,0-.85,2.43A23.07,23.07,0,0,0,77.87,819.41Z"/><path class="cls-16" d="M146.47,820.51a2.62,2.62,0,0,0,1,1.7,2.31,2.31,0,0,0,1.22.37c6.58.85,12.91-3.54,19.49-2.81,1.34.13,2.68.49,4,.61a20.56,20.56,0,0,0,4.76-.24,53.57,53.57,0,0,0,6.45-1.1,15.43,15.43,0,0,0,4.76-1.46,6.26,6.26,0,0,0,3-3.78,3.48,3.48,0,0,0-.24-2.19c-.12-.24-.37-.36-.61-.61a7.58,7.58,0,0,0-1.71-.85l-2.55-1a13.48,13.48,0,0,0-3.78-1,21.77,21.77,0,0,0-2.8,0c-3.29-.24-6.34-2.19-9-4l-3.78-2.56a5.56,5.56,0,0,0-1.22-.61,5.11,5.11,0,0,0-1.34.12,17.93,17.93,0,0,0-7.67,4.63,11.52,11.52,0,0,1-1.71,1.71,7.58,7.58,0,0,1-5.85.61c-.85-.25-.73-.49-1.22-1.22s-1.34-1-2-.12a2.31,2.31,0,0,0-.24,1,21.7,21.7,0,0,0,1.1,6.83,3.38,3.38,0,0,1,.12,1.09l-.37,1.1c0,.12,0,.24-.12.24A6.71,6.71,0,0,0,146.47,820.51Z"/><path class="cls-11" d="M146.47,820.51a2.62,2.62,0,0,0,1,1.7,2.31,2.31,0,0,0,1.22.37c6.58.85,12.91-3.54,19.49-2.81,1.34.13,2.68.49,4,.61a20.56,20.56,0,0,0,4.76-.24,53.57,53.57,0,0,0,6.45-1.1,15.43,15.43,0,0,0,4.76-1.46,6.26,6.26,0,0,0,3-3.78,3.48,3.48,0,0,0-.24-2.19c-.12-.24-.37-.36-.61-.61-.24.85-.24,1.83-.37,2.32a4.08,4.08,0,0,1-2.43,2.68,6.62,6.62,0,0,1-2.68.24c-5.85-.12-11.58,1.22-17.31.37a32.29,32.29,0,0,0-6-.86,51.09,51.09,0,0,0-6,.86c-3.16.48-6.33.24-9.5.36A6.65,6.65,0,0,0,146.47,820.51Z"/><path class="cls-16" d="M64,822.09a11.64,11.64,0,0,0,4.75,5.24,50.38,50.38,0,0,1,5.85,4c2.07,2.07,3.53,4.87,6,6.46a9.51,9.51,0,0,0,3,1.22,19.77,19.77,0,0,0,3.66.73,25.7,25.7,0,0,0,9.62-1.59A12,12,0,0,0,99.8,837a7.92,7.92,0,0,0,1-1.09,5.11,5.11,0,0,0,1.47-2.44,1.66,1.66,0,0,0-.13-1.34,3.9,3.9,0,0,0-1.21-1.22,21.23,21.23,0,0,0-2.81-1.58,13.19,13.19,0,0,1-3.65-1.95,6.83,6.83,0,0,1-1.71-2.44,26.44,26.44,0,0,1-2-4.75,17.61,17.61,0,0,0-1.09-3.29c-.86-1.58-2.56-2.8-2.81-4.63a.85.85,0,0,0-1-1,13.93,13.93,0,0,0-3.29,0,3.76,3.76,0,0,0-2.68,1.82c-.37.61-.49,1.34-1.1,1.83a2.88,2.88,0,0,1-1,.24,8.35,8.35,0,0,1-4.88-.36,5.58,5.58,0,0,1-2.8-3.78c-.12-.61,0-1.22-1-1.22s-1.1,1-1.34,1.47a18.11,18.11,0,0,0-1.83,6.21h-.61A2.41,2.41,0,0,0,63.61,819,4.3,4.3,0,0,0,64,822.09Z"/><path class="cls-11" d="M64,822.09a11.64,11.64,0,0,0,4.75,5.24,50.38,50.38,0,0,1,5.85,4c2.07,2.07,3.53,4.87,6,6.46a9.51,9.51,0,0,0,3,1.22,19.77,19.77,0,0,0,3.66.73,25.7,25.7,0,0,0,9.62-1.59A12,12,0,0,0,99.8,837a7.92,7.92,0,0,0,1-1.09,5.11,5.11,0,0,0,1.47-2.44,6.05,6.05,0,0,0-2.08,0c-1.34.37-2.07,2-3.41,2.68-1.83,1-4,.12-6.09.12-1.34,0-2.68.37-4,.25a8.71,8.71,0,0,1-3.29-1.1,17.76,17.76,0,0,1-3.78-2.31A21.68,21.68,0,0,1,77,829.89a40.82,40.82,0,0,0-5.24-6.09,3.21,3.21,0,0,0-1-.86,13,13,0,0,0-1.22-.48,8.73,8.73,0,0,1-3.29-3.66,8.29,8.29,0,0,0-.85-1.34A2.41,2.41,0,0,0,63.61,819,5.3,5.3,0,0,0,64,822.09Z"/><path class="cls-25" d="M154.63,587.42a13,13,0,0,0-2.8,5.48c-.49,2-2.56,17.06-1.83,19-2.07-1.34-9-.13-11.09-1.34-.85-.61-5.6-3.29-6.33-4s-5.61-1.47-6.22-2.32c-2.56-2.8,9.14-18.15,6.58-20.84a.59.59,0,0,1-.12-.85v-.12a20.61,20.61,0,0,1,3.53-3.78,6.79,6.79,0,0,0,2.32-4.51,14.42,14.42,0,0,1,4.26,1.71c3.17,1.71,6.34,3.41,9.38,5.12,1.22.73,3.42,1.46,4.15,2.68S155.36,586.44,154.63,587.42Z"/><path class="cls-18" d="M130,587.54a40.89,40.89,0,0,1,7.31,3.65,12.71,12.71,0,0,1,5.36,5.36c.36,1,.61,2,1,2.93,1.59,4.14,6.1,6.46,8.53,10a33.27,33.27,0,0,1,1.95,3.53,51.39,51.39,0,0,1,2.44,7.31c.61,2.44-1.34,4.63-1.83,7.19a37.2,37.2,0,0,0,0,7.31,86.36,86.36,0,0,1-1,13.77c-1.22,9.63-6.1,36.56-7.19,46.18-10.48-.24-38,0-47.89-3.17-3.29-1.09,15.23-26,11.94-26.56a1.21,1.21,0,0,1-1.22-1.1v-.24c0-14.38,7.19-27.78,8.66-42,.48-5,2.31-9.5,3.41-14.37,1-4.39,1-9,2.43-13.28a6.6,6.6,0,0,1,1.22-2.44,5.9,5.9,0,0,1,1.59-1.46C127.82,589.12,128.92,588.51,130,587.54Z"/><circle class="cls-25" cx="150.24" cy="570.6" r="15.84"/><path class="cls-11" d="M136.11,581.32a5.35,5.35,0,0,0-6,.49A2.9,2.9,0,0,0,129,585l-7.67,1.83a17.33,17.33,0,0,0-3.54,1.09,5.31,5.31,0,0,0-2.56,2.56c-.12.12-.12.37-.24.37h-.37a7.43,7.43,0,0,0-4,.12,22,22,0,0,0-10.11,7.43,3.78,3.78,0,0,0-1,2c0,1,.49,1.95,0,2.8,1.59,7.19.74,14.5.61,21.81a9.78,9.78,0,0,1-1.58,3.9A13.88,13.88,0,0,0,97,633.11c-.61,3.9,2.31,7.8,1.82,11.69a19.92,19.92,0,0,1-1.7,4.76,10.9,10.9,0,0,0-1,5.85c.13.85.49,1.7.61,2.68a11.77,11.77,0,0,1,.12,3.65,62.66,62.66,0,0,1-.36,6.7c-.24,3.66-.73,7.56-3.29,10.12,7.68-.37,15.6-1,22-5.12a18.63,18.63,0,0,0,2.44-2c2.07-2.44,2.68-5.73,3.05-8.9a39.16,39.16,0,0,0,.36-10.72,10.64,10.64,0,0,1-.24-3.41c.24-2.07,2-3.66,3.41-5.12a19.39,19.39,0,0,0,4.26-5.24,8.83,8.83,0,0,0,.74-6.58c-.37-1.09-1-1.95-1.35-3a2.62,2.62,0,0,1,.86-2.93c5-2.8,6.09-9.74,6.09-15.47a41,41,0,0,0-1.22-8.65l-1.22-5.61a7.59,7.59,0,0,0,1.22-5.85,4.77,4.77,0,0,1-.36-1.7,5.39,5.39,0,0,1,.85-2.19A15.19,15.19,0,0,0,136.11,581.32Z"/><path class="cls-11" d="M156.58,595.34c.36,1.7.85,3.41,1.34,5.11.24.61.73,1.22,1,1.83a12,12,0,0,1,1,7.43,42,42,0,0,1-2.19,7.31,9.11,9.11,0,0,0-.74,2.56,18.44,18.44,0,0,0,.13,2.68,76.83,76.83,0,0,1,.48,10.6,20.71,20.71,0,0,1-1.7,9,2.64,2.64,0,0,1-1.22,1.34,2.54,2.54,0,0,1-1.34,0l-4.27-.61A1.74,1.74,0,0,1,147.2,641a21.81,21.81,0,0,1-.37-9.75c1.1-9.87,3.41-19.5,3.29-29.49,0-2.8-.61-6.82.85-9.38.61-1.1.37-.61,1.34-.36l1.59.36A4.6,4.6,0,0,1,156.58,595.34Z"/><path class="cls-14" d="M148.66,615.2c.24,5.85.36,11.57.61,17.42l-16.21-.49a13.13,13.13,0,0,1,.25-4.87c.61-3.78-.25-7.68,0-11.58.24-2.92,1.09-5.84,1.34-8.77.12-1.7,0-3.41,0-5.12a35.93,35.93,0,0,1,.73-5.11,26.26,26.26,0,0,1,2-6.95c2.07.24,4.38.61,6,2.19A7.56,7.56,0,0,1,145,595c1.1,3.41.61,7.19,1.83,10.48A32.69,32.69,0,0,1,148.66,615.2Z"/><path class="cls-16" d="M146.59,693.42c-.12,3.53,1.95,6.58,3.65,9.63a68.22,68.22,0,0,1,6.46,14.25,12.52,12.52,0,0,0,1.58,3.66c.86,1,1.71,1.83,2.56,2.68,2.2,2.44,2.93,5.73,3.29,8.89.25,2.07.37,4.15.49,6.34.12,2.56,0,5.36,1.34,7.55-1.22,0-1.71,1.71-1.34,3.05s1.1,2.44.73,3.66c-1.34.85-1,2.92-.49,4.5a39.43,39.43,0,0,1,.86,8.41c.24,11.45.24,22.91.24,34.36-5.12,2.93-11.09,6.22-16.94,5a3.61,3.61,0,0,1-2.68-1.71,2.77,2.77,0,0,1-.12-1.7l.49-9.63a19.09,19.09,0,0,0-.61-7c-.61-1.58-1.71-3.29-1.22-4.87a6.2,6.2,0,0,1,.73-1.58c.86-2.2-.36-4.63-1-7a7.31,7.31,0,0,1-.25-1.58,5,5,0,0,1,.37-1.83,25.91,25.91,0,0,0-.12-13.65,2.62,2.62,0,0,1-.12-1.7,1.82,1.82,0,0,0,.24-.86,2,2,0,0,0-.37-1.21,17.63,17.63,0,0,0,1.59-2.44,3,3,0,0,1-1.83-3.66c.12-.24.12-.36.24-.61a1.5,1.5,0,0,1-1.58-1.46,1.78,1.78,0,0,1,.24-.85c.25-.37.61-.49.86-.85a2.23,2.23,0,0,0-.61-1.59l-2.2-2.31c-1.58-1.83-2.43-4.27-4.14-6a45.74,45.74,0,0,1-6.09-8.29l-7.07-11.09-2.43,3.29a8.64,8.64,0,0,0-1.83,3.29,17.44,17.44,0,0,0,0,3.54c.36,6.82-2.44,13.52-2.56,20.34a11.41,11.41,0,0,1-.49,4.51,6.81,6.81,0,0,0-.49,1.34,5.79,5.79,0,0,0,.13,2.07,9.13,9.13,0,0,1-2.44,7.56c-1.22,1.34-2.93,2.44-3.29,4.14-.12.49-.24,1.1-.37,1.59-.48,1-2,1.46-2.07,2.55,0,.61.49,1.22.25,1.83a3.33,3.33,0,0,1-.61.73l-3.78,3c-4.14,3.41-5.36,9.5-8,14.26a18.15,18.15,0,0,0-2.2,5c-.85,3.05-.85,6.58-3,8.9A7.68,7.68,0,0,0,89,801.86c-.6,1.22.13,2.68.25,4s-.37,3.17-1.83,3a8.5,8.5,0,0,1,1.1,4.87A25.64,25.64,0,0,1,72,811.12a6.08,6.08,0,0,1-3.41-3.53,1,1,0,0,1,0-.85,2.14,2.14,0,0,1,.85-1c3.53-3,3.53-8.28,4.63-12.79,1-4,2.8-7.68,4.26-11.45,3.17-8.29,4.39-17.67,10.48-24,1.34-1.34,2.93-2.8,3.29-4.63a27.83,27.83,0,0,0,.12-3.29,2.62,2.62,0,0,1,1.83-2.44,13,13,0,0,1-1.58-4.63,5.88,5.88,0,0,1-.25-2.07,12.48,12.48,0,0,1,.61-2.19,20.23,20.23,0,0,0,.37-11.09,15.43,15.43,0,0,1-1.1-5.72c.12-1,.37-2,.49-2.93a18.09,18.09,0,0,0-.37-5.12l-1-6.33a36.78,36.78,0,0,1-.61-6.34c.24-5.12-3.17-25.83.85-29.24s15.23,10.6,20.35,9.87a25.6,25.6,0,0,1,6.82-.25,30.91,30.91,0,0,1,10.24,3.9L140,690.74C142.08,691.59,144.27,692.69,146.59,693.42Z"/><path class="cls-11" d="M160.84,550.13a12.17,12.17,0,0,0-10-2.31,21.4,21.4,0,0,0-9.38,4.75,13.25,13.25,0,0,1-2.68,1.83c-1.58.73-3.53.73-4.75,1.82-1.71,1.47-1.46,4.15-.86,6.34s1.59,4.51.86,6.7c-.25.61-.49,1.34-.73,2a5.7,5.7,0,0,0,1,3.66,19.15,19.15,0,0,0,1.34-2.81c.49-.85,1.59-1.7,2.56-1.34s1.22,1.34,1.34,2.32.73,2,1.71,2.07a1.83,1.83,0,0,0,1.7-1.22c1.1-2.19-.12-5,.85-7.07.61-1.21,1.95-2.07,2.44-3.29a27.07,27.07,0,0,0,.61-3.16c.37-1.1,1.34-2.08,2.44-1.59a5.92,5.92,0,0,1,.85.73,4.22,4.22,0,0,0,5.12.37,8.52,8.52,0,0,1,1.83-1.34,2.74,2.74,0,0,1,2.68.73,5.06,5.06,0,0,1,1.22,2.56,7.67,7.67,0,0,0,1.34,3.65,2.81,2.81,0,0,0,1.34.73,3.13,3.13,0,0,0,3.65-.48,2.87,2.87,0,0,0,.24-2.81,24.05,24.05,0,0,0-1.34-2.55c-1.09-2-.85-4.39-1.82-6.1A12.9,12.9,0,0,0,160.84,550.13Z"/><path class="cls-14" d="M163,598a1.79,1.79,0,0,1,.12,1.34,4.32,4.32,0,0,1-.61,1,15.68,15.68,0,0,1-6.7,4,2.51,2.51,0,0,0-1,.49,1.67,1.67,0,0,0,0,2.07,6.57,6.57,0,0,1,1,2.07c.12,1.34-1.34,2.44-2.68,2.93a7.23,7.23,0,0,1-5.73.12,8.82,8.82,0,0,1-3.05-2.93c-5.72-7.79-9.13-16.93-15-24.73a7.93,7.93,0,0,1-1-1.71,1.69,1.69,0,0,1,.37-1.82c.61-.61,1.7-.61,2.07-1.34.12-.37,0-.86.12-1.22.24-.86,1.34-1.1,2.07-1.71s.86-1.22,1.34-1.46a2.26,2.26,0,0,1,1.95.36c2.8,1.59,4.51,4.27,6.46,6.71A113.13,113.13,0,0,0,152.19,593c-.36-.36.49-4.26,1.1-4.51,1.1-.49,3,1.22,3.9,1.83A17.13,17.13,0,0,1,163,598Z"/><rect class="cls-7" x="55.32" y="620.82" width="113.93" height="113.93" transform="translate(-147.33 41.7) rotate(-12.8)"/><rect class="cls-17" x="57.52" y="617.53" width="113.93" height="113.93" transform="translate(-146.55 42.11) rotate(-12.8)"/><path class="cls-14" d="M146.83,664.67A31.38,31.38,0,0,0,109.3,641a12.19,12.19,0,0,0-2.31.61l7.43,32.9,32.9-7.44A14.51,14.51,0,0,0,146.83,664.67Z"/><path class="cls-14" d="M143.66,672.83l-32.9,7.43-7.43-32.9a31.37,31.37,0,1,0,40.33,25.47Z"/><path class="cls-25" d="M93.58,669.78A27.5,27.5,0,0,1,98,672.71a7.83,7.83,0,0,1,2.68,4.38,3.08,3.08,0,0,1-.12,1.47,1.35,1.35,0,0,1-1.22.73c-.24-.12-.61-.25-.73-.49a22.48,22.48,0,0,0-2.8-1.83c-.37-.24-.73-.49-1.1-.24l-.36.36a2.85,2.85,0,0,0-.61,1.59,3.41,3.41,0,0,0,1.7,2.56,6.52,6.52,0,0,1,2.32,2.19,1,1,0,0,1,.12.85,1.45,1.45,0,0,1-.37.49,8,8,0,0,1-6.09,1.83c-1.34-.25-2.8-.86-4.26-1.1a9.57,9.57,0,0,1-1.83-.24,3.46,3.46,0,0,1-2-2,10.3,10.3,0,0,1-.73-2.8,33.12,33.12,0,0,1-.12-11,.94.94,0,0,1,.24-.61,3.13,3.13,0,0,1,.61-.37c1.58-.6,4.14-2.07,6-1.82a4.71,4.71,0,0,1,1.71,1C91.27,668.2,93.46,669.3,93.58,669.78Z"/><path class="cls-11" d="M93.83,668.2c-.37-1.58.73-5.85-2.44-5.48-.36-1.71,1.83-3.29,1-5-.25-.61-.86-1-1.1-1.58-.61-1.71,2.31-3.29,1.34-4.88-.37-.61-1.1-.85-1.34-1.34-.73-1.34,1.83-2.68,1.58-4.26-.12-.49-.48-1-.61-1.46a5.83,5.83,0,0,1,.49-2c.49-1.59-.49-3.78.85-4.88-1,.37-1.58-1.09-1.34-2.07s.86-1.95.61-2.92a3.62,3.62,0,0,1-.24-1.1c0-1,1.58-1.34,1.58-2.44a3.56,3.56,0,0,0-.24-1.09,2.13,2.13,0,0,1,1.22-1.83,6.45,6.45,0,0,0,2-1.22c.36-.49.73-1.1,1.34-1,.24,0,.36.24.49.36.73.49,1.82,0,2.43-.73a10.1,10.1,0,0,0,2.2-7.55c-.13-2.68-.74-5.37-.74-8a16.76,16.76,0,0,1,.13-2.55,22.07,22.07,0,0,0,.61-2.56c-.25-1.59-3,.24-4.27.61A35,35,0,0,0,96,604.6c-1.1.73-2.07,1.46-3.17,2.31-4.26,3.17-9.87,4.75-12.91,9-1,1.34-1.71,3.17-3.17,4-.73.36-1.34.73-2.07,1.09-1.59,1.22-1.34,3.66-2,5.61a8.19,8.19,0,0,0-.49,1.58,11.31,11.31,0,0,0,.12,1.95l.86,4.51a161.24,161.24,0,0,0,5.6,22.66,19.32,19.32,0,0,1,1.59,7.44,12.19,12.19,0,0,1-.25,2.07,15.65,15.65,0,0,0,.25,2.44l.6,2.92a.68.68,0,0,0,.37.61,1,1,0,0,0,.85,0c4-1.34,7.56-4.51,11.7-4"/><path class="cls-25" d="M167.06,639a.62.62,0,0,1,.48.24,3.61,3.61,0,0,1,1,3.9c-.12.12-.12.24-.12.49a1,1,0,0,0,.24.61,2,2,0,0,1,.24,2.43c-.24.37-.6.49-.73.86-.24.6.49,1.21.49,1.82.12.86-.85,1.47-1.58,1.83a1.85,1.85,0,0,1-1.95,0,1.51,1.51,0,0,1-.37-1.7,7.07,7.07,0,0,1,1-1.59,1.92,1.92,0,0,1-2.2-1.34A2.74,2.74,0,0,1,164,644a2.85,2.85,0,0,0,.37-.61c0-.36-.37-.48-.61-.73-1.1-.73-2.44-2.92-.73-3.78a4.92,4.92,0,0,1,1.82-.36c.49,0,.61.36,1,.49S166.57,638.83,167.06,639Z"/><path class="cls-7" d="M133.31,577.3a3,3,0,0,1,2.68.61,5.83,5.83,0,0,1,1.7,3.05,30.52,30.52,0,0,0,6.22,9.5"/><path class="cls-7" d="M130.63,580.71a3.84,3.84,0,0,1,3.65,1.22,14.24,14.24,0,0,1,1.58,3.05,17.68,17.68,0,0,0,4.76,6.09"/></g></svg>