<?xml version="1.0" encoding="UTF-8"?>
<svg width="100pt" height="100pt" version="1.1" viewBox="0 0 100 100" xmlns="http://www.w3.org/2000/svg">
 <path d="m60.285 48.281l37.027-37.02c2.5898-2.5938 2.5742-6.7461 0-9.3242-2.5781-2.5898-6.7305-2.5586-9.3086 0l-37.02 37.023-37.023-37.023c-2.5898-2.5898-6.7422-2.5742-9.3047 0-2.5938 2.5977-2.5781 6.7422 0 9.3242l37.023 37.02-37.023 37.008c-2.5938 2.5898-2.5781 6.7422 0 9.3164 2.5781 2.5977 6.7305 2.582 9.3047 0l37.023-37.02 37.02 37.02c2.5938 2.5977 6.7461 2.582 9.3086 0 2.5898-2.5898 2.5742-6.7422 0-9.3164z" fill-rule="evenodd"/>
</svg>
